<svg xmlns="http://www.w3.org/2000/svg" viewBox="0 0 800 800" width="800" height="800">
  <title>Euler Circuit</title>
  <rect x="0" y="0" width="800" height="800" fill="#FEFAE0" opacity="1.00"/>
  <rect x="0" y="0" width="800" height="303" fill="#A8DADC" opacity="0.86"/>
  <rect x="0" y="303" width="800" height="497" fill="#6D2E46" opacity="0.76"/>
  <line x1="0" y1="303" x2="800" y2="303" stroke="#000000" stroke-width="2.733210271503688" opacity="1.00"/>
  <circle cx="329" cy="149" r="77" fill="#FFFFFF" opacity="1.00"/>
  <rect x="623" y="258" width="112" height="542" fill="#000000" opacity="0.80"/>
  <rect x="633" y="268" width="8" height="12" fill="#FFFFFF" opacity="0.82"/>
  <rect x="633" y="293" width="8" height="12" fill="#FFFFFF" opacity="0.59"/>
  <rect x="633" y="318" width="8" height="12" fill="#FFFFFF" opacity="0.73"/>
  <rect x="633" y="368" width="8" height="12" fill="#FFFFFF" opacity="0.84"/>
  <rect x="633" y="393" width="8" height="12" fill="#FFFFFF" opacity="0.85"/>
  <rect x="633" y="418" width="8" height="12" fill="#F4D35E" opacity="0.55"/>
  <rect x="633" y="443" width="8" height="12" fill="#F4D35E" opacity="0.75"/>
  <rect x="633" y="468" width="8" height="12" fill="#FFFFFF" opacity="0.77"/>
  <rect x="653" y="293" width="8" height="12" fill="#F4D35E" opacity="0.55"/>
  <rect x="653" y="343" width="8" height="12" fill="#F4D35E" opacity="0.51"/>
  <rect x="653" y="368" width="8" height="12" fill="#FFFFFF" opacity="0.67"/>
  <rect x="653" y="418" width="8" height="12" fill="#F4D35E" opacity="0.87"/>
  <rect x="653" y="443" width="8" height="12" fill="#FFFFFF" opacity="0.65"/>
  <rect x="653" y="468" width="8" height="12" fill="#FFFFFF" opacity="0.66"/>
  <rect x="673" y="268" width="8" height="12" fill="#FFFFFF" opacity="0.77"/>
  <rect x="673" y="293" width="8" height="12" fill="#F4D35E" opacity="0.82"/>
  <rect x="673" y="343" width="8" height="12" fill="#FFFFFF" opacity="0.55"/>
  <rect x="673" y="393" width="8" height="12" fill="#FFFFFF" opacity="0.57"/>
  <rect x="673" y="468" width="8" height="12" fill="#F4D35E" opacity="0.76"/>
  <rect x="673" y="493" width="8" height="12" fill="#F4D35E" opacity="0.50"/>
  <rect x="693" y="293" width="8" height="12" fill="#F4D35E" opacity="0.81"/>
  <rect x="693" y="318" width="8" height="12" fill="#F4D35E" opacity="0.84"/>
  <rect x="693" y="343" width="8" height="12" fill="#F4D35E" opacity="0.83"/>
  <rect x="693" y="393" width="8" height="12" fill="#F4D35E" opacity="0.62"/>
  <rect x="713" y="268" width="8" height="12" fill="#FFFFFF" opacity="0.64"/>
  <rect x="713" y="318" width="8" height="12" fill="#FFFFFF" opacity="0.82"/>
  <rect x="713" y="393" width="8" height="12" fill="#F4D35E" opacity="0.83"/>
  <rect x="713" y="443" width="8" height="12" fill="#F4D35E" opacity="0.81"/>
  <rect x="713" y="468" width="8" height="12" fill="#FFFFFF" opacity="0.70"/>
  <rect x="713" y="493" width="8" height="12" fill="#F4D35E" opacity="0.61"/>
  <rect x="526" y="239" width="150" height="561" fill="#000000" opacity="0.77"/>
  <rect x="536" y="249" width="8" height="12" fill="#FFFFFF" opacity="0.74"/>
  <rect x="536" y="299" width="8" height="12" fill="#FFFFFF" opacity="0.69"/>
  <rect x="536" y="374" width="8" height="12" fill="#FFFFFF" opacity="0.55"/>
  <rect x="536" y="449" width="8" height="12" fill="#FFFFFF" opacity="0.72"/>
  <rect x="556" y="249" width="8" height="12" fill="#FFFFFF" opacity="0.68"/>
  <rect x="556" y="274" width="8" height="12" fill="#FFFFFF" opacity="0.78"/>
  <rect x="556" y="399" width="8" height="12" fill="#FFFFFF" opacity="0.86"/>
  <rect x="556" y="499" width="8" height="12" fill="#F4D35E" opacity="0.71"/>
  <rect x="576" y="249" width="8" height="12" fill="#F4D35E" opacity="0.64"/>
  <rect x="576" y="299" width="8" height="12" fill="#F4D35E" opacity="0.88"/>
  <rect x="576" y="399" width="8" height="12" fill="#FFFFFF" opacity="0.60"/>
  <rect x="576" y="449" width="8" height="12" fill="#FFFFFF" opacity="0.67"/>
  <rect x="596" y="274" width="8" height="12" fill="#FFFFFF" opacity="0.76"/>
  <rect x="596" y="299" width="8" height="12" fill="#FFFFFF" opacity="0.61"/>
  <rect x="596" y="324" width="8" height="12" fill="#FFFFFF" opacity="0.79"/>
  <rect x="596" y="349" width="8" height="12" fill="#F4D35E" opacity="0.89"/>
  <rect x="596" y="374" width="8" height="12" fill="#F4D35E" opacity="0.71"/>
  <rect x="596" y="399" width="8" height="12" fill="#FFFFFF" opacity="0.69"/>
  <rect x="596" y="424" width="8" height="12" fill="#F4D35E" opacity="0.65"/>
  <rect x="596" y="449" width="8" height="12" fill="#FFFFFF" opacity="0.54"/>
  <rect x="596" y="499" width="8" height="12" fill="#FFFFFF" opacity="0.82"/>
  <rect x="616" y="274" width="8" height="12" fill="#FFFFFF" opacity="0.58"/>
  <rect x="616" y="299" width="8" height="12" fill="#FFFFFF" opacity="0.70"/>
  <rect x="616" y="324" width="8" height="12" fill="#F4D35E" opacity="0.74"/>
  <rect x="616" y="349" width="8" height="12" fill="#F4D35E" opacity="0.52"/>
  <rect x="616" y="449" width="8" height="12" fill="#F4D35E" opacity="0.86"/>
  <rect x="616" y="499" width="8" height="12" fill="#FFFFFF" opacity="0.64"/>
  <rect x="636" y="249" width="8" height="12" fill="#F4D35E" opacity="0.83"/>
  <rect x="636" y="299" width="8" height="12" fill="#FFFFFF" opacity="0.55"/>
  <rect x="636" y="324" width="8" height="12" fill="#FFFFFF" opacity="0.56"/>
  <rect x="636" y="374" width="8" height="12" fill="#FFFFFF" opacity="0.88"/>
  <rect x="636" y="399" width="8" height="12" fill="#FFFFFF" opacity="0.69"/>
  <rect x="636" y="424" width="8" height="12" fill="#F4D35E" opacity="0.69"/>
  <rect x="636" y="499" width="8" height="12" fill="#FFFFFF" opacity="0.54"/>
  <rect x="656" y="249" width="8" height="12" fill="#F4D35E" opacity="0.53"/>
  <rect x="656" y="349" width="8" height="12" fill="#F4D35E" opacity="0.79"/>
  <rect x="656" y="374" width="8" height="12" fill="#F4D35E" opacity="0.70"/>
  <rect x="656" y="399" width="8" height="12" fill="#F4D35E" opacity="0.72"/>
  <rect x="656" y="474" width="8" height="12" fill="#FFFFFF" opacity="0.81"/>
  <rect x="656" y="499" width="8" height="12" fill="#FFFFFF" opacity="0.62"/>
  <rect x="49" y="205" width="61" height="595" fill="#A89F91" opacity="0.70"/>
  <rect x="59" y="215" width="8" height="12" fill="#FFFFFF" opacity="0.61"/>
  <rect x="59" y="265" width="8" height="12" fill="#FFFFFF" opacity="0.77"/>
  <rect x="59" y="290" width="8" height="12" fill="#F4D35E" opacity="0.69"/>
  <rect x="59" y="315" width="8" height="12" fill="#F4D35E" opacity="0.55"/>
  <rect x="59" y="340" width="8" height="12" fill="#F4D35E" opacity="0.74"/>
  <rect x="59" y="365" width="8" height="12" fill="#F4D35E" opacity="0.84"/>
  <rect x="59" y="415" width="8" height="12" fill="#FFFFFF" opacity="0.59"/>
  <rect x="79" y="215" width="8" height="12" fill="#FFFFFF" opacity="0.76"/>
  <rect x="79" y="265" width="8" height="12" fill="#F4D35E" opacity="0.65"/>
  <rect x="79" y="365" width="8" height="12" fill="#FFFFFF" opacity="0.56"/>
  <rect x="79" y="390" width="8" height="12" fill="#FFFFFF" opacity="0.56"/>
  <rect x="79" y="415" width="8" height="12" fill="#F4D35E" opacity="0.72"/>
  <rect x="79" y="440" width="8" height="12" fill="#F4D35E" opacity="0.66"/>
  <rect x="79" y="465" width="8" height="12" fill="#FFFFFF" opacity="0.59"/>
  <rect x="99" y="315" width="8" height="12" fill="#FFFFFF" opacity="0.56"/>
  <rect x="99" y="340" width="8" height="12" fill="#F4D35E" opacity="0.78"/>
  <rect x="99" y="365" width="8" height="12" fill="#FFFFFF" opacity="0.52"/>
  <rect x="99" y="415" width="8" height="12" fill="#FFFFFF" opacity="0.87"/>
  <rect x="99" y="440" width="8" height="12" fill="#FFFFFF" opacity="0.63"/>
  <rect x="99" y="465" width="8" height="12" fill="#FFFFFF" opacity="0.73"/>
  <rect x="71" y="213" width="180" height="587" fill="#A89F91" opacity="0.86"/>
  <rect x="81" y="223" width="8" height="12" fill="#F4D35E" opacity="0.88"/>
  <rect x="81" y="273" width="8" height="12" fill="#FFFFFF" opacity="0.63"/>
  <rect x="81" y="423" width="8" height="12" fill="#F4D35E" opacity="0.56"/>
  <rect x="81" y="473" width="8" height="12" fill="#FFFFFF" opacity="0.86"/>
  <rect x="81" y="498" width="8" height="12" fill="#FFFFFF" opacity="0.83"/>
  <rect x="101" y="223" width="8" height="12" fill="#F4D35E" opacity="0.70"/>
  <rect x="101" y="323" width="8" height="12" fill="#FFFFFF" opacity="0.82"/>
  <rect x="101" y="348" width="8" height="12" fill="#F4D35E" opacity="0.76"/>
  <rect x="101" y="448" width="8" height="12" fill="#FFFFFF" opacity="0.55"/>
  <rect x="101" y="473" width="8" height="12" fill="#FFFFFF" opacity="0.69"/>
  <rect x="101" y="498" width="8" height="12" fill="#F4D35E" opacity="0.89"/>
  <rect x="121" y="223" width="8" height="12" fill="#F4D35E" opacity="0.73"/>
  <rect x="121" y="248" width="8" height="12" fill="#F4D35E" opacity="0.66"/>
  <rect x="121" y="323" width="8" height="12" fill="#F4D35E" opacity="0.63"/>
  <rect x="121" y="398" width="8" height="12" fill="#FFFFFF" opacity="0.65"/>
  <rect x="121" y="473" width="8" height="12" fill="#F4D35E" opacity="0.51"/>
  <rect x="141" y="223" width="8" height="12" fill="#F4D35E" opacity="0.71"/>
  <rect x="141" y="248" width="8" height="12" fill="#F4D35E" opacity="0.87"/>
  <rect x="141" y="298" width="8" height="12" fill="#FFFFFF" opacity="0.62"/>
  <rect x="141" y="323" width="8" height="12" fill="#FFFFFF" opacity="0.71"/>
  <rect x="141" y="373" width="8" height="12" fill="#FFFFFF" opacity="0.84"/>
  <rect x="141" y="398" width="8" height="12" fill="#FFFFFF" opacity="0.89"/>
  <rect x="141" y="448" width="8" height="12" fill="#FFFFFF" opacity="0.61"/>
  <rect x="141" y="498" width="8" height="12" fill="#F4D35E" opacity="0.66"/>
  <rect x="161" y="223" width="8" height="12" fill="#FFFFFF" opacity="0.61"/>
  <rect x="161" y="248" width="8" height="12" fill="#FFFFFF" opacity="0.51"/>
  <rect x="161" y="298" width="8" height="12" fill="#FFFFFF" opacity="0.66"/>
  <rect x="161" y="373" width="8" height="12" fill="#F4D35E" opacity="0.85"/>
  <rect x="161" y="398" width="8" height="12" fill="#FFFFFF" opacity="0.51"/>
  <rect x="161" y="473" width="8" height="12" fill="#F4D35E" opacity="0.80"/>
  <rect x="161" y="498" width="8" height="12" fill="#FFFFFF" opacity="0.76"/>
  <rect x="181" y="223" width="8" height="12" fill="#FFFFFF" opacity="0.51"/>
  <rect x="181" y="248" width="8" height="12" fill="#FFFFFF" opacity="0.70"/>
  <rect x="181" y="273" width="8" height="12" fill="#F4D35E" opacity="0.77"/>
  <rect x="181" y="298" width="8" height="12" fill="#F4D35E" opacity="0.51"/>
  <rect x="181" y="373" width="8" height="12" fill="#F4D35E" opacity="0.63"/>
  <rect x="181" y="398" width="8" height="12" fill="#F4D35E" opacity="0.69"/>
  <rect x="181" y="498" width="8" height="12" fill="#F4D35E" opacity="0.55"/>
  <rect x="201" y="248" width="8" height="12" fill="#FFFFFF" opacity="0.71"/>
  <rect x="201" y="348" width="8" height="12" fill="#F4D35E" opacity="0.85"/>
  <rect x="201" y="398" width="8" height="12" fill="#F4D35E" opacity="0.80"/>
  <rect x="201" y="448" width="8" height="12" fill="#F4D35E" opacity="0.85"/>
  <rect x="201" y="473" width="8" height="12" fill="#F4D35E" opacity="0.56"/>
  <rect x="201" y="498" width="8" height="12" fill="#F4D35E" opacity="0.60"/>
  <rect x="221" y="223" width="8" height="12" fill="#F4D35E" opacity="0.51"/>
  <rect x="221" y="323" width="8" height="12" fill="#FFFFFF" opacity="0.68"/>
  <rect x="221" y="348" width="8" height="12" fill="#FFFFFF" opacity="0.59"/>
  <rect x="221" y="398" width="8" height="12" fill="#F4D35E" opacity="0.52"/>
  <rect x="254" y="273" width="116" height="527" fill="#000000" opacity="0.83"/>
  <rect x="264" y="283" width="8" height="12" fill="#FFFFFF" opacity="0.55"/>
  <rect x="264" y="358" width="8" height="12" fill="#F4D35E" opacity="0.54"/>
  <rect x="264" y="383" width="8" height="12" fill="#FFFFFF" opacity="0.84"/>
  <rect x="264" y="433" width="8" height="12" fill="#F4D35E" opacity="0.73"/>
  <rect x="264" y="458" width="8" height="12" fill="#F4D35E" opacity="0.58"/>
  <rect x="264" y="483" width="8" height="12" fill="#F4D35E" opacity="0.73"/>
  <rect x="284" y="358" width="8" height="12" fill="#F4D35E" opacity="0.56"/>
  <rect x="284" y="383" width="8" height="12" fill="#F4D35E" opacity="0.89"/>
  <rect x="284" y="458" width="8" height="12" fill="#FFFFFF" opacity="0.61"/>
  <rect x="284" y="483" width="8" height="12" fill="#F4D35E" opacity="0.66"/>
  <rect x="304" y="408" width="8" height="12" fill="#FFFFFF" opacity="0.60"/>
  <rect x="304" y="433" width="8" height="12" fill="#FFFFFF" opacity="0.56"/>
  <rect x="304" y="483" width="8" height="12" fill="#FFFFFF" opacity="0.73"/>
  <rect x="324" y="308" width="8" height="12" fill="#F4D35E" opacity="0.66"/>
  <rect x="324" y="333" width="8" height="12" fill="#F4D35E" opacity="0.83"/>
  <rect x="324" y="358" width="8" height="12" fill="#F4D35E" opacity="0.75"/>
  <rect x="324" y="408" width="8" height="12" fill="#FFFFFF" opacity="0.50"/>
  <rect x="324" y="433" width="8" height="12" fill="#FFFFFF" opacity="0.70"/>
  <rect x="344" y="358" width="8" height="12" fill="#F4D35E" opacity="0.83"/>
  <rect x="344" y="383" width="8" height="12" fill="#FFFFFF" opacity="0.71"/>
  <rect x="344" y="433" width="8" height="12" fill="#F4D35E" opacity="0.58"/>
  <rect x="710" y="257" width="79" height="543" fill="#1D3557" opacity="0.94"/>
  <rect x="720" y="267" width="8" height="12" fill="#F4D35E" opacity="0.78"/>
  <rect x="720" y="292" width="8" height="12" fill="#FFFFFF" opacity="0.65"/>
  <rect x="720" y="367" width="8" height="12" fill="#FFFFFF" opacity="0.71"/>
  <rect x="720" y="392" width="8" height="12" fill="#F4D35E" opacity="0.88"/>
  <rect x="720" y="442" width="8" height="12" fill="#F4D35E" opacity="0.82"/>
  <rect x="720" y="492" width="8" height="12" fill="#F4D35E" opacity="0.79"/>
  <rect x="740" y="292" width="8" height="12" fill="#F4D35E" opacity="0.68"/>
  <rect x="740" y="342" width="8" height="12" fill="#FFFFFF" opacity="0.75"/>
  <rect x="740" y="367" width="8" height="12" fill="#F4D35E" opacity="0.54"/>
  <rect x="740" y="417" width="8" height="12" fill="#FFFFFF" opacity="0.53"/>
  <rect x="740" y="467" width="8" height="12" fill="#F4D35E" opacity="0.88"/>
  <rect x="740" y="492" width="8" height="12" fill="#F4D35E" opacity="0.61"/>
  <rect x="760" y="292" width="8" height="12" fill="#FFFFFF" opacity="0.60"/>
  <rect x="760" y="342" width="8" height="12" fill="#F4D35E" opacity="0.89"/>
  <rect x="760" y="367" width="8" height="12" fill="#F4D35E" opacity="0.50"/>
  <rect x="760" y="392" width="8" height="12" fill="#FFFFFF" opacity="0.70"/>
  <rect x="760" y="417" width="8" height="12" fill="#FFFFFF" opacity="0.82"/>
  <rect x="760" y="442" width="8" height="12" fill="#F4D35E" opacity="0.69"/>
  <rect x="760" y="467" width="8" height="12" fill="#F4D35E" opacity="0.73"/>
  <rect x="760" y="492" width="8" height="12" fill="#FFFFFF" opacity="0.76"/>
  <rect x="354" y="206" width="83" height="594" fill="#6D2E46" opacity="0.97"/>
  <rect x="364" y="241" width="8" height="12" fill="#F4D35E" opacity="0.76"/>
  <rect x="364" y="266" width="8" height="12" fill="#F4D35E" opacity="0.70"/>
  <rect x="364" y="291" width="8" height="12" fill="#FFFFFF" opacity="0.78"/>
  <rect x="364" y="316" width="8" height="12" fill="#FFFFFF" opacity="0.70"/>
  <rect x="364" y="341" width="8" height="12" fill="#FFFFFF" opacity="0.57"/>
  <rect x="364" y="366" width="8" height="12" fill="#FFFFFF" opacity="0.68"/>
  <rect x="364" y="391" width="8" height="12" fill="#FFFFFF" opacity="0.82"/>
  <rect x="364" y="441" width="8" height="12" fill="#FFFFFF" opacity="0.86"/>
  <rect x="364" y="491" width="8" height="12" fill="#FFFFFF" opacity="0.78"/>
  <rect x="384" y="241" width="8" height="12" fill="#F4D35E" opacity="0.89"/>
  <rect x="384" y="266" width="8" height="12" fill="#F4D35E" opacity="0.83"/>
  <rect x="384" y="291" width="8" height="12" fill="#FFFFFF" opacity="0.56"/>
  <rect x="384" y="366" width="8" height="12" fill="#FFFFFF" opacity="0.66"/>
  <rect x="384" y="391" width="8" height="12" fill="#F4D35E" opacity="0.61"/>
  <rect x="384" y="416" width="8" height="12" fill="#FFFFFF" opacity="0.57"/>
  <rect x="384" y="441" width="8" height="12" fill="#F4D35E" opacity="0.62"/>
  <rect x="384" y="466" width="8" height="12" fill="#F4D35E" opacity="0.76"/>
  <rect x="384" y="491" width="8" height="12" fill="#FFFFFF" opacity="0.65"/>
  <rect x="404" y="341" width="8" height="12" fill="#F4D35E" opacity="0.62"/>
  <rect x="404" y="391" width="8" height="12" fill="#F4D35E" opacity="0.58"/>
  <rect x="404" y="416" width="8" height="12" fill="#FFFFFF" opacity="0.78"/>
  <rect x="404" y="491" width="8" height="12" fill="#FFFFFF" opacity="0.64"/>
  <rect x="424" y="216" width="8" height="12" fill="#FFFFFF" opacity="0.86"/>
  <rect x="424" y="241" width="8" height="12" fill="#F4D35E" opacity="0.51"/>
  <rect x="424" y="266" width="8" height="12" fill="#F4D35E" opacity="0.68"/>
  <rect x="424" y="316" width="8" height="12" fill="#FFFFFF" opacity="0.88"/>
  <rect x="424" y="366" width="8" height="12" fill="#FFFFFF" opacity="0.76"/>
  <rect x="424" y="416" width="8" height="12" fill="#F4D35E" opacity="0.77"/>
  <rect x="424" y="466" width="8" height="12" fill="#F4D35E" opacity="0.89"/>
  <rect x="700" y="174" width="98" height="7" fill="#FEFAE0" opacity="0.34"/>
  <rect x="9" y="241" width="81" height="13" fill="#FFFFFF" opacity="0.51"/>
  <rect x="641" y="241" width="68" height="15" fill="#A8DADC" opacity="0.38"/>
  <rect x="428" y="93" width="100" height="6" fill="#FFFFFF" opacity="0.52"/>
</svg>