<svg xmlns="http://www.w3.org/2000/svg" viewBox="0 0 800 800" width="800" height="800">
  <rect width="800" height="800" fill="#FEFAE0"/>

  <!-- Ground plane -->
  <rect x="0" y="620" width="800" height="180" fill="#1D3557"/>

  <!-- Sky gradient bands -->
  <rect x="0" y="0" width="800" height="100" fill="#1D3557" opacity="0.15"/>
  <rect x="0" y="100" width="800" height="80" fill="#1D3557" opacity="0.08"/>

  <!-- Sun -->
  <circle cx="650" cy="120" r="60" fill="#F4D35E"/>
  <circle cx="650" cy="120" r="45" fill="#E76F51" opacity="0.4"/>
  <!-- Sun rays -->
  <line x1="650" y1="40" x2="650" y2="20" stroke="#F4D35E" stroke-width="3"/>
  <line x1="710" y1="60" x2="730" y2="45" stroke="#F4D35E" stroke-width="3"/>
  <line x1="730" y1="120" x2="750" y2="120" stroke="#F4D35E" stroke-width="3"/>
  <line x1="710" y1="180" x2="730" y2="195" stroke="#F4D35E" stroke-width="3"/>
  <line x1="590" y1="60" x2="570" y2="45" stroke="#F4D35E" stroke-width="3"/>
  <line x1="570" y1="120" x2="550" y2="120" stroke="#F4D35E" stroke-width="3"/>
  <line x1="590" y1="180" x2="570" y2="195" stroke="#F4D35E" stroke-width="3"/>

  <!-- Geometric clouds -->
  <rect x="80" y="80" width="120" height="25" rx="12" fill="#FFFFFF" opacity="0.8"/>
  <rect x="100" y="65" width="80" height="20" rx="10" fill="#FFFFFF" opacity="0.6"/>
  <rect x="300" y="50" width="100" height="20" rx="10" fill="#FFFFFF" opacity="0.7"/>
  <rect x="320" y="38" width="60" height="16" rx="8" fill="#FFFFFF" opacity="0.5"/>
  <!-- Triangle cloud accent -->
  <polygon points="450,100 480,70 510,100" fill="#FFFFFF" opacity="0.4"/>

  <!-- Building 1 - Tall red -->
  <rect x="30" y="280" width="80" height="340" fill="#E63946"/>
  <rect x="30" y="280" width="80" height="340" stroke="#000000" stroke-width="2" fill="none"/>
  <!-- Windows -->
  <rect x="42" y="300" width="14" height="14" fill="#F4D35E"/>
  <rect x="62" y="300" width="14" height="14" fill="#F4D35E"/>
  <rect x="82" y="300" width="14" height="14" fill="#F4D35E"/>
  <rect x="42" y="330" width="14" height="14" fill="#F4D35E"/>
  <rect x="62" y="330" width="14" height="14" fill="#F4D35E"/>
  <rect x="82" y="330" width="14" height="14" fill="#000000" opacity="0.3"/>
  <rect x="42" y="360" width="14" height="14" fill="#F4D35E"/>
  <rect x="62" y="360" width="14" height="14" fill="#000000" opacity="0.3"/>
  <rect x="82" y="360" width="14" height="14" fill="#F4D35E"/>
  <rect x="42" y="390" width="14" height="14" fill="#000000" opacity="0.3"/>
  <rect x="62" y="390" width="14" height="14" fill="#F4D35E"/>
  <rect x="82" y="390" width="14" height="14" fill="#F4D35E"/>
  <rect x="42" y="420" width="14" height="14" fill="#F4D35E"/>
  <rect x="62" y="420" width="14" height="14" fill="#F4D35E"/>
  <rect x="82" y="420" width="14" height="14" fill="#000000" opacity="0.3"/>
  <!-- Roof detail -->
  <polygon points="30,280 70,250 110,280" fill="#000000"/>

  <!-- Building 2 - Short blue -->
  <rect x="120" y="420" width="100" height="200" fill="#1D3557"/>
  <rect x="120" y="420" width="100" height="200" stroke="#000000" stroke-width="2" fill="none"/>
  <rect x="135" y="440" width="12" height="18" fill="#FEFAE0"/>
  <rect x="155" y="440" width="12" height="18" fill="#F4D35E"/>
  <rect x="175" y="440" width="12" height="18" fill="#FEFAE0"/>
  <rect x="195" y="440" width="12" height="18" fill="#F4D35E"/>
  <rect x="135" y="475" width="12" height="18" fill="#F4D35E"/>
  <rect x="155" y="475" width="12" height="18" fill="#FEFAE0"/>
  <rect x="175" y="475" width="12" height="18" fill="#F4D35E"/>
  <rect x="195" y="475" width="12" height="18" fill="#FEFAE0"/>
  <rect x="135" y="510" width="12" height="18" fill="#FEFAE0"/>
  <rect x="155" y="510" width="12" height="18" fill="#F4D35E"/>
  <rect x="175" y="510" width="12" height="18" fill="#FEFAE0"/>
  <rect x="195" y="510" width="12" height="18" fill="#000000" opacity="0.3"/>
  <!-- Door -->
  <rect x="155" y="575" width="30" height="45" fill="#000000"/>

  <!-- Building 3 - Tallest, teal -->
  <rect x="235" y="180" width="90" height="440" fill="#2A9D8F"/>
  <rect x="235" y="180" width="90" height="440" stroke="#000000" stroke-width="2" fill="none"/>
  <rect x="250" y="200" width="10" height="10" fill="#FEFAE0"/>
  <rect x="270" y="200" width="10" height="10" fill="#FEFAE0"/>
  <rect x="290" y="200" width="10" height="10" fill="#FEFAE0"/>
  <rect x="250" y="225" width="10" height="10" fill="#FEFAE0"/>
  <rect x="270" y="225" width="10" height="10" fill="#000000" opacity="0.3"/>
  <rect x="290" y="225" width="10" height="10" fill="#FEFAE0"/>
  <rect x="250" y="250" width="10" height="10" fill="#F4D35E"/>
  <rect x="270" y="250" width="10" height="10" fill="#FEFAE0"/>
  <rect x="290" y="250" width="10" height="10" fill="#F4D35E"/>
  <rect x="250" y="275" width="10" height="10" fill="#FEFAE0"/>
  <rect x="270" y="275" width="10" height="10" fill="#F4D35E"/>
  <rect x="290" y="275" width="10" height="10" fill="#FEFAE0"/>
  <rect x="250" y="300" width="10" height="10" fill="#000000" opacity="0.3"/>
  <rect x="270" y="300" width="10" height="10" fill="#FEFAE0"/>
  <rect x="290" y="300" width="10" height="10" fill="#F4D35E"/>
  <!-- Antenna -->
  <line x1="280" y1="180" x2="280" y2="140" stroke="#000000" stroke-width="3"/>
  <circle cx="280" cy="135" r="5" fill="#E63946"/>

  <!-- Building 4 - Medium orange -->
  <rect x="340" y="350" width="110" height="270" fill="#E76F51"/>
  <rect x="340" y="350" width="110" height="270" stroke="#000000" stroke-width="2" fill="none"/>
  <rect x="355" y="370" width="16" height="20" fill="#FEFAE0"/>
  <rect x="380" y="370" width="16" height="20" fill="#F4D35E"/>
  <rect x="405" y="370" width="16" height="20" fill="#FEFAE0"/>
  <rect x="430" y="370" width="10" height="20" fill="#F4D35E"/>
  <rect x="355" y="410" width="16" height="20" fill="#F4D35E"/>
  <rect x="380" y="410" width="16" height="20" fill="#FEFAE0"/>
  <rect x="405" y="410" width="16" height="20" fill="#000000" opacity="0.3"/>
  <rect x="430" y="410" width="10" height="20" fill="#FEFAE0"/>
  <rect x="355" y="450" width="16" height="20" fill="#FEFAE0"/>
  <rect x="380" y="450" width="16" height="20" fill="#F4D35E"/>
  <rect x="405" y="450" width="16" height="20" fill="#FEFAE0"/>
  <!-- Rooftop water tank -->
  <rect x="370" y="325" width="40" height="25" fill="#000000"/>
  <rect x="365" y="320" width="50" height="8" fill="#000000"/>

  <!-- Building 5 - Yellow accent -->
  <rect x="465" y="300" width="70" height="320" fill="#F4D35E"/>
  <rect x="465" y="300" width="70" height="320" stroke="#000000" stroke-width="2" fill="none"/>
  <rect x="478" y="320" width="10" height="12" fill="#1D3557"/>
  <rect x="498" y="320" width="10" height="12" fill="#1D3557"/>
  <rect x="518" y="320" width="10" height="12" fill="#1D3557"/>
  <rect x="478" y="348" width="10" height="12" fill="#1D3557"/>
  <rect x="498" y="348" width="10" height="12" fill="#000000" opacity="0.4"/>
  <rect x="518" y="348" width="10" height="12" fill="#1D3557"/>
  <rect x="478" y="376" width="10" height="12" fill="#000000" opacity="0.4"/>
  <rect x="498" y="376" width="10" height="12" fill="#1D3557"/>
  <rect x="518" y="376" width="10" height="12" fill="#1D3557"/>

  <!-- Building 6 - Wide low red -->
  <rect x="550" y="450" width="130" height="170" fill="#E63946"/>
  <rect x="550" y="450" width="130" height="170" stroke="#000000" stroke-width="2" fill="none"/>
  <rect x="565" y="470" width="14" height="16" fill="#FEFAE0"/>
  <rect x="590" y="470" width="14" height="16" fill="#F4D35E"/>
  <rect x="615" y="470" width="14" height="16" fill="#FEFAE0"/>
  <rect x="640" y="470" width="14" height="16" fill="#FEFAE0"/>
  <rect x="665" y="470" width="8" height="16" fill="#F4D35E"/>
  <rect x="565" y="505" width="14" height="16" fill="#F4D35E"/>
  <rect x="590" y="505" width="14" height="16" fill="#FEFAE0"/>
  <rect x="615" y="505" width="14" height="16" fill="#000000" opacity="0.3"/>
  <rect x="640" y="505" width="14" height="16" fill="#F4D35E"/>
  <!-- Arched door -->
  <rect x="600" y="575" width="30" height="45" fill="#000000"/>
  <path d="M 600 575 Q 615 555 630 575" fill="#000000"/>

  <!-- Building 7 - Skinny tall dark -->
  <rect x="695" y="250" width="50" height="370" fill="#000000"/>
  <rect x="700" y="270" width="8" height="10" fill="#F4D35E"/>
  <rect x="720" y="270" width="8" height="10" fill="#F4D35E"/>
  <rect x="700" y="295" width="8" height="10" fill="#FEFAE0"/>
  <rect x="720" y="295" width="8" height="10" fill="#F4D35E"/>
  <rect x="700" y="320" width="8" height="10" fill="#F4D35E"/>
  <rect x="720" y="320" width="8" height="10" fill="#FEFAE0"/>
  <rect x="700" y="345" width="8" height="10" fill="#000000"/>
  <rect x="720" y="345" width="8" height="10" fill="#F4D35E"/>
  <!-- Spire -->
  <polygon points="710,250 720,220 730,250" fill="#000000"/>

  <!-- Street elements -->
  <!-- Road lines -->
  <line x1="0" y1="660" x2="800" y2="660" stroke="#F4D35E" stroke-width="2" stroke-dasharray="20,10"/>
  <!-- Street lamp -->
  <rect x="500" y="600" width="4" height="55" fill="#000000"/>
  <circle cx="502" cy="595" r="10" fill="#F4D35E" opacity="0.8"/>
  <!-- Fire hydrant -->
  <rect x="155" y="630" width="10" height="18" fill="#E63946"/>
  <rect x="152" y="628" width="16" height="5" fill="#E63946"/>

  <!-- Reflection lines in ground -->
  <line x1="70" y1="680" x2="70" y2="750" stroke="#2A9D8F" stroke-width="1" opacity="0.3"/>
  <line x1="170" y1="670" x2="170" y2="730" stroke="#E63946" stroke-width="1" opacity="0.3"/>
  <line x1="280" y1="675" x2="280" y2="760" stroke="#2A9D8F" stroke-width="1" opacity="0.3"/>
  <line x1="400" y1="670" x2="400" y2="740" stroke="#E76F51" stroke-width="1" opacity="0.3"/>
  <line x1="615" y1="680" x2="615" y2="750" stroke="#E63946" stroke-width="1" opacity="0.3"/>
  <line x1="720" y1="670" x2="720" y2="760" stroke="#F4D35E" stroke-width="1" opacity="0.3"/>
</svg>