<svg xmlns="http://www.w3.org/2000/svg" viewBox="0 0 800 800" width="800" height="800">
  <title>Iris Mechanism</title>
  <rect x="0" y="0" width="800" height="800" fill="#FEFAE0" opacity="1.00"/>
  <rect x="0" y="731" width="800" height="69" fill="#1D3557" opacity="0.86"/>
  <rect x="0" y="0" width="800" height="135" fill="#1D3557" opacity="0.76"/>
  <rect x="-10" y="135" width="82" height="590" fill="#000000" opacity="0.95"/>
  <line x1="-10" y1="135" x2="-10" y2="731" stroke="#000000" stroke-width="1" opacity="0.20"/>
  <rect x="74" y="135" width="82" height="564" fill="#6D2E46" opacity="0.96"/>
  <line x1="74" y1="135" x2="74" y2="731" stroke="#000000" stroke-width="1" opacity="0.20"/>
  <rect x="122" y="135" width="82" height="590" fill="#2A9D8F" opacity="0.83"/>
  <line x1="122" y1="135" x2="122" y2="731" stroke="#000000" stroke-width="1" opacity="0.20"/>
  <rect x="204" y="135" width="82" height="564" fill="#2A9D8F" opacity="0.75"/>
  <line x1="204" y1="135" x2="204" y2="731" stroke="#000000" stroke-width="1" opacity="0.20"/>
  <rect x="273" y="135" width="82" height="581" fill="#000000" opacity="0.84"/>
  <line x1="273" y1="135" x2="273" y2="731" stroke="#000000" stroke-width="1" opacity="0.20"/>
  <rect x="338" y="135" width="82" height="587" fill="#E76F51" opacity="0.95"/>
  <line x1="338" y1="135" x2="338" y2="731" stroke="#000000" stroke-width="1" opacity="0.20"/>
  <rect x="391" y="135" width="82" height="566" fill="#264653" opacity="0.72"/>
  <line x1="391" y1="135" x2="391" y2="731" stroke="#000000" stroke-width="1" opacity="0.20"/>
  <rect x="465" y="135" width="82" height="563" fill="#000000" opacity="0.97"/>
  <line x1="465" y1="135" x2="465" y2="731" stroke="#000000" stroke-width="1" opacity="0.20"/>
  <rect x="524" y="135" width="82" height="584" fill="#E63946" opacity="0.74"/>
  <line x1="524" y1="135" x2="524" y2="731" stroke="#000000" stroke-width="1" opacity="0.20"/>
  <rect x="593" y="135" width="82" height="558" fill="#2A9D8F" opacity="0.94"/>
  <line x1="593" y1="135" x2="593" y2="731" stroke="#000000" stroke-width="1" opacity="0.20"/>
  <rect x="650" y="135" width="82" height="577" fill="#E76F51" opacity="0.76"/>
  <line x1="650" y1="135" x2="650" y2="731" stroke="#000000" stroke-width="1" opacity="0.20"/>
  <rect x="731" y="135" width="82" height="591" fill="#000000" opacity="0.91"/>
  <line x1="731" y1="135" x2="731" y2="731" stroke="#000000" stroke-width="1" opacity="0.20"/>
  <rect x="658" y="529" width="27" height="27" fill="#E63946" opacity="0.67"/>
  <rect x="414" y="500" width="24" height="24" fill="#1D3557" opacity="0.52"/>
  <rect x="171" y="632" width="35" height="35" fill="#1D3557" opacity="0.86"/>
  <rect x="506" y="662" width="19" height="19" fill="#1D3557" opacity="0.54"/>
  <rect x="92" y="697" width="15" height="15" fill="#1D3557" opacity="0.86"/>
  <rect x="637" y="639" width="17" height="17" fill="#1D3557" opacity="0.54"/>
  <rect x="670" y="234" width="20" height="20" fill="#1D3557" opacity="0.71"/>
  <rect x="340" y="233" width="16" height="16" fill="#1D3557" opacity="0.83"/>
  <rect x="165" y="546" width="18" height="18" fill="#F4D35E" opacity="0.90"/>
  <rect x="45" y="364" width="10" height="10" fill="#E63946" opacity="0.64"/>
  <line x1="0" y1="503" x2="800" y2="503" stroke="#FFFFFF" stroke-width="0.6517698642119147" opacity="0.38"/>
  <line x1="0" y1="384" x2="800" y2="384" stroke="#FFFFFF" stroke-width="1.874093581785768" opacity="0.53"/>
  <line x1="0" y1="342" x2="800" y2="342" stroke="#000000" stroke-width="1.6239675552579522" opacity="0.34"/>
  <line x1="0" y1="176" x2="800" y2="176" stroke="#000000" stroke-width="1.380745330970761" opacity="0.35"/>
  <line x1="0" y1="568" x2="800" y2="568" stroke="#FFFFFF" stroke-width="1.0691859581952006" opacity="0.51"/>
  <line x1="0" y1="698" x2="800" y2="698" stroke="#FFFFFF" stroke-width="1.4317688432608504" opacity="0.52"/>
  <line x1="0" y1="322" x2="800" y2="322" stroke="#FFFFFF" stroke-width="1.80882498917669" opacity="0.27"/>
  <line x1="0" y1="399" x2="800" y2="399" stroke="#FFFFFF" stroke-width="0.621142081109111" opacity="0.57"/>
  <line x1="0" y1="280" x2="800" y2="280" stroke="#000000" stroke-width="1.5082344004686303" opacity="0.28"/>
  <line x1="0" y1="298" x2="800" y2="298" stroke="#000000" stroke-width="1.1165899360513674" opacity="0.29"/>
  <line x1="0" y1="199" x2="800" y2="199" stroke="#FFFFFF" stroke-width="1.7562123115714718" opacity="0.57"/>
  <line x1="0" y1="720" x2="800" y2="720" stroke="#000000" stroke-width="0.5891568232322006" opacity="0.23"/>
  <line x1="0" y1="226" x2="800" y2="226" stroke="#000000" stroke-width="0.6620619555676523" opacity="0.27"/>
</svg>