<svg xmlns="http://www.w3.org/2000/svg" viewBox="0 0 800 800" width="800" height="800">
  <title>Rotation Group</title>
  <rect x="0" y="0" width="800" height="800" fill="#FFFFFF" opacity="1.00"/>
  <circle cx="318" cy="377" r="369" fill="#FEFAE0" opacity="1.00"/>
  <circle cx="318" cy="377" r="328" fill="#E63946" opacity="1.00"/>
  <circle cx="318" cy="377" r="287" fill="#FFFFFF" opacity="1.00"/>
  <circle cx="318" cy="377" r="246" fill="#E76F51" opacity="1.00"/>
  <circle cx="318" cy="377" r="205" fill="#FEFAE0" opacity="1.00"/>
  <circle cx="318" cy="377" r="164" fill="#F4D35E" opacity="1.00"/>
  <circle cx="318" cy="377" r="123" fill="#FFFFFF" opacity="1.00"/>
  <circle cx="318" cy="377" r="82" fill="#E76F51" opacity="1.00"/>
  <circle cx="318" cy="377" r="41" fill="#FEFAE0" opacity="1.00"/>
  <line x1="318" y1="0" x2="318" y2="800" stroke="#000000" stroke-width="1.1997216876602028" opacity="0.30"/>
  <line x1="0" y1="377" x2="800" y2="377" stroke="#000000" stroke-width="1.0234565668886972" opacity="0.30"/>
  <line x1="646.0" y1="377.0" x2="697.0" y2="377.0" stroke="#000000" stroke-width="2" opacity="0.50"/>
  <line x1="602.0563324412959" y1="541.0" x2="646.2236280343022" y2="566.5" stroke="#000000" stroke-width="2" opacity="0.50"/>
  <line x1="482.0" y1="661.0563324412958" x2="507.5" y2="705.2236280343022" stroke="#000000" stroke-width="2" opacity="0.50"/>
  <line x1="318.0" y1="705.0" x2="318.0" y2="756.0" stroke="#000000" stroke-width="2" opacity="0.50"/>
  <line x1="154.00000000000009" y1="661.0563324412959" x2="128.50000000000009" y2="705.2236280343022" stroke="#000000" stroke-width="2" opacity="0.50"/>
  <line x1="33.94366755870408" y1="541.0" x2="-10.223628034302294" y2="566.5" stroke="#000000" stroke-width="2" opacity="0.50"/>
  <line x1="-10.0" y1="377.00000000000006" x2="-61.0" y2="377.00000000000006" stroke="#000000" stroke-width="2" opacity="0.50"/>
  <line x1="33.943667558704135" y1="212.99999999999997" x2="-10.223628034302237" y2="187.49999999999997" stroke="#000000" stroke-width="2" opacity="0.50"/>
  <line x1="153.99999999999986" y1="92.94366755870419" x2="128.49999999999983" y2="48.77637196569788" stroke="#000000" stroke-width="2" opacity="0.50"/>
  <line x1="317.99999999999994" y1="49.0" x2="317.99999999999994" y2="-2.0" stroke="#000000" stroke-width="2" opacity="0.50"/>
  <line x1="482.0" y1="92.94366755870413" x2="507.5" y2="48.77637196569776" stroke="#000000" stroke-width="2" opacity="0.50"/>
  <line x1="602.0563324412958" y1="212.99999999999986" x2="646.2236280343021" y2="187.49999999999983" stroke="#000000" stroke-width="2" opacity="0.50"/>
  <circle cx="318" cy="377" r="9" fill="#1D3557" opacity="1.00"/>
  <rect x="0" y="0" width="47" height="47" fill="#F4D35E" opacity="1.00"/>
  <rect x="740" y="0" width="43" height="43" fill="#F4D35E" opacity="1.00"/>
  <rect x="0" y="740" width="42" height="42" fill="#F4D35E" opacity="1.00"/>
  <rect x="740" y="740" width="41" height="41" fill="#E63946" opacity="1.00"/>
  <circle cx="358" cy="270" r="10" fill="#2A9D8F" opacity="0.48"/>
  <circle cx="623" cy="681" r="5" fill="#6D2E46" opacity="0.63"/>
  <circle cx="327" cy="13" r="5" fill="#F4D35E" opacity="0.54"/>
  <circle cx="462" cy="406" r="25" fill="#F4D35E" opacity="0.49"/>
</svg>