<svg xmlns="http://www.w3.org/2000/svg" viewBox="0 0 800 800" width="800" height="800">
  <title>Holonomy</title>
  <rect x="0" y="0" width="800" height="800" fill="#1D3557" opacity="1.00"/>
  <rect x="0" y="731" width="800" height="69" fill="#264653" opacity="0.93"/>
  <rect x="0" y="0" width="800" height="55" fill="#1D3557" opacity="0.98"/>
  <rect x="-1" y="55" width="67" height="640" fill="#E76F51" opacity="0.97"/>
  <line x1="-1" y1="55" x2="-1" y2="731" stroke="#000000" stroke-width="1" opacity="0.20"/>
  <rect x="72" y="55" width="67" height="639" fill="#FFFFFF" opacity="0.75"/>
  <line x1="72" y1="55" x2="72" y2="731" stroke="#000000" stroke-width="1" opacity="0.20"/>
  <rect x="164" y="55" width="67" height="658" fill="#E63946" opacity="0.75"/>
  <line x1="164" y1="55" x2="164" y2="731" stroke="#000000" stroke-width="1" opacity="0.20"/>
  <rect x="234" y="55" width="67" height="668" fill="#E9C46A" opacity="0.75"/>
  <line x1="234" y1="55" x2="234" y2="731" stroke="#000000" stroke-width="1" opacity="0.20"/>
  <rect x="318" y="55" width="67" height="650" fill="#F4D35E" opacity="0.84"/>
  <line x1="318" y1="55" x2="318" y2="731" stroke="#000000" stroke-width="1" opacity="0.20"/>
  <rect x="402" y="55" width="67" height="646" fill="#E76F51" opacity="0.96"/>
  <line x1="402" y1="55" x2="402" y2="731" stroke="#000000" stroke-width="1" opacity="0.20"/>
  <rect x="473" y="55" width="67" height="653" fill="#FFFFFF" opacity="0.70"/>
  <line x1="473" y1="55" x2="473" y2="731" stroke="#000000" stroke-width="1" opacity="0.20"/>
  <rect x="551" y="55" width="67" height="666" fill="#E76F51" opacity="0.93"/>
  <line x1="551" y1="55" x2="551" y2="731" stroke="#000000" stroke-width="1" opacity="0.20"/>
  <rect x="633" y="55" width="67" height="636" fill="#A8DADC" opacity="0.98"/>
  <line x1="633" y1="55" x2="633" y2="731" stroke="#000000" stroke-width="1" opacity="0.20"/>
  <rect x="713" y="55" width="67" height="666" fill="#E9C46A" opacity="0.75"/>
  <line x1="713" y1="55" x2="713" y2="731" stroke="#000000" stroke-width="1" opacity="0.20"/>
  <rect x="594" y="455" width="17" height="17" fill="#E63946" opacity="0.54"/>
  <rect x="522" y="252" width="11" height="11" fill="#1D3557" opacity="0.72"/>
  <rect x="259" y="443" width="40" height="40" fill="#E63946" opacity="0.86"/>
  <rect x="437" y="626" width="17" height="17" fill="#E63946" opacity="0.81"/>
  <rect x="652" y="302" width="11" height="11" fill="#1D3557" opacity="0.78"/>
  <rect x="461" y="715" width="21" height="21" fill="#1D3557" opacity="0.83"/>
  <rect x="417" y="568" width="21" height="21" fill="#F4D35E" opacity="0.67"/>
  <rect x="22" y="623" width="19" height="19" fill="#E63946" opacity="0.62"/>
  <rect x="90" y="160" width="32" height="32" fill="#1D3557" opacity="0.69"/>
  <rect x="422" y="481" width="30" height="30" fill="#1D3557" opacity="0.74"/>
  <rect x="284" y="78" width="30" height="30" fill="#E63946" opacity="0.77"/>
  <rect x="514" y="338" width="22" height="22" fill="#E63946" opacity="0.82"/>
  <rect x="215" y="725" width="13" height="13" fill="#1D3557" opacity="0.53"/>
  <line x1="0" y1="503" x2="800" y2="503" stroke="#FFFFFF" stroke-width="1.311257597460468" opacity="0.25"/>
  <line x1="0" y1="57" x2="800" y2="57" stroke="#000000" stroke-width="1.2840196343074581" opacity="0.47"/>
  <line x1="0" y1="635" x2="800" y2="635" stroke="#FFFFFF" stroke-width="1.6813346192404959" opacity="0.57"/>
  <line x1="0" y1="147" x2="800" y2="147" stroke="#000000" stroke-width="1.4253517859252265" opacity="0.23"/>
  <line x1="0" y1="367" x2="800" y2="367" stroke="#000000" stroke-width="1.9447373622282784" opacity="0.28"/>
  <line x1="0" y1="689" x2="800" y2="689" stroke="#FFFFFF" stroke-width="0.7542744300836326" opacity="0.30"/>
  <line x1="0" y1="289" x2="800" y2="289" stroke="#000000" stroke-width="0.5260289373288247" opacity="0.31"/>
  <line x1="0" y1="328" x2="800" y2="328" stroke="#000000" stroke-width="1.6394402979515779" opacity="0.56"/>
  <line x1="0" y1="616" x2="800" y2="616" stroke="#FFFFFF" stroke-width="0.7902740582597485" opacity="0.23"/>
  <line x1="0" y1="239" x2="800" y2="239" stroke="#FFFFFF" stroke-width="1.318419003533324" opacity="0.57"/>
  <line x1="0" y1="330" x2="800" y2="330" stroke="#000000" stroke-width="1.3726432993653224" opacity="0.36"/>
  <line x1="0" y1="102" x2="800" y2="102" stroke="#FFFFFF" stroke-width="0.737144948356447" opacity="0.58"/>
  <line x1="0" y1="513" x2="800" y2="513" stroke="#FFFFFF" stroke-width="1.6821831901342554" opacity="0.31"/>
  <line x1="0" y1="646" x2="800" y2="646" stroke="#FFFFFF" stroke-width="1.4688655201544216" opacity="0.25"/>
</svg>