<svg xmlns="http://www.w3.org/2000/svg" viewBox="0 0 800 800" width="800" height="800">
  <title>Block Copolymer</title>
  <rect x="0" y="0" width="800" height="800" fill="#457B9D" opacity="1.00"/>
  <line x1="305" y1="0" x2="1105" y2="800" stroke="#000000" stroke-width="3.6943807912288587" opacity="0.68"/>
  <line x1="243" y1="0" x2="1043" y2="800" stroke="#F4D35E" stroke-width="3.215094119979434" opacity="0.50"/>
  <line x1="247" y1="0" x2="1047" y2="800" stroke="#000000" stroke-width="4.482881409215553" opacity="0.49"/>
  <line x1="-349" y1="0" x2="451" y2="800" stroke="#6D2E46" stroke-width="1.1730712672288595" opacity="0.56"/>
  <line x1="189" y1="0" x2="989" y2="800" stroke="#FFFFFF" stroke-width="1.8284561677061444" opacity="0.69"/>
  <line x1="-190" y1="0" x2="610" y2="800" stroke="#2A9D8F" stroke-width="5.529228735960984" opacity="0.85"/>
  <line x1="187" y1="0" x2="987" y2="800" stroke="#E76F51" stroke-width="3.3507898043513293" opacity="0.48"/>
  <line x1="-236" y1="0" x2="564" y2="800" stroke="#FFFFFF" stroke-width="1.6023663455337755" opacity="0.61"/>
  <line x1="377" y1="0" x2="1177" y2="800" stroke="#F4D35E" stroke-width="4.934307618106942" opacity="0.81"/>
  <line x1="-67" y1="0" x2="733" y2="800" stroke="#000000" stroke-width="5.138910398905921" opacity="0.35"/>
  <line x1="-58" y1="0" x2="742" y2="800" stroke="#E76F51" stroke-width="4.809564676103838" opacity="0.35"/>
  <line x1="-148" y1="0" x2="652" y2="800" stroke="#FFFFFF" stroke-width="4.273672645725848" opacity="0.51"/>
  <line x1="31" y1="0" x2="831" y2="800" stroke="#2A9D8F" stroke-width="4.239626858923825" opacity="0.61"/>
  <line x1="-251" y1="0" x2="549" y2="800" stroke="#FFFFFF" stroke-width="2.6369074063615203" opacity="0.38"/>
  <line x1="13" y1="0" x2="813" y2="800" stroke="#E76F51" stroke-width="3.7098401206501626" opacity="0.46"/>
  <line x1="139" y1="0" x2="939" y2="800" stroke="#E76F51" stroke-width="5.510176548133404" opacity="0.46"/>
  <line x1="-207" y1="0" x2="593" y2="800" stroke="#FFFFFF" stroke-width="5.41268925040974" opacity="0.74"/>
  <line x1="-25" y1="0" x2="775" y2="800" stroke="#FFFFFF" stroke-width="4.876640563190903" opacity="0.45"/>
  <line x1="-46" y1="0" x2="754" y2="800" stroke="#000000" stroke-width="7.206305994710217" opacity="0.73"/>
  <line x1="287" y1="0" x2="-513" y2="800" stroke="#000000" stroke-width="1.3767873616338127" opacity="0.15"/>
  <line x1="167" y1="0" x2="-633" y2="800" stroke="#FFFFFF" stroke-width="1.3052184522360644" opacity="0.15"/>
  <line x1="36" y1="0" x2="-764" y2="800" stroke="#FFFFFF" stroke-width="1.948371047463207" opacity="0.15"/>
  <line x1="215" y1="0" x2="-585" y2="800" stroke="#FFFFFF" stroke-width="1.1436283792687634" opacity="0.15"/>
  <line x1="435" y1="0" x2="-365" y2="800" stroke="#000000" stroke-width="0.526212624154228" opacity="0.15"/>
  <line x1="36" y1="0" x2="-764" y2="800" stroke="#FFFFFF" stroke-width="1.3535981378281108" opacity="0.15"/>
  <polygon points="225,763 403,561 667,485" fill="#E63946" opacity="0.78"/>
  <polygon points="121,352 590,779 429,791" fill="#E63946" opacity="0.71"/>
  <rect x="166" y="125" width="23" height="48" fill="#6D2E46" opacity="0.54"/>
  <rect x="570" y="265" width="53" height="68" fill="#FFFFFF" opacity="0.70"/>
  <rect x="254" y="537" width="119" height="109" fill="#6D2E46" opacity="0.70"/>
  <rect x="289" y="487" width="59" height="56" fill="#E63946" opacity="0.75"/>
  <circle cx="121" cy="437" r="12" fill="#E63946" opacity="0.98"/>
  <circle cx="418" cy="443" r="14" fill="#E63946" opacity="0.94"/>
  <circle cx="340" cy="528" r="15" fill="#F4D35E" opacity="0.79"/>
  <circle cx="797" cy="661" r="24" fill="#E63946" opacity="0.75"/>
  <circle cx="296" cy="459" r="23" fill="#F4D35E" opacity="0.96"/>
  <circle cx="269" cy="509" r="10" fill="#1D3557" opacity="0.63"/>
  <circle cx="718" cy="529" r="21" fill="#E63946" opacity="0.90"/>
  <circle cx="157" cy="109" r="11" fill="#F4D35E" opacity="0.95"/>
  <circle cx="56" cy="662" r="22" fill="#E63946" opacity="0.84"/>
  <circle cx="790" cy="557" r="7" fill="#F4D35E" opacity="0.78"/>
</svg>