<svg xmlns="http://www.w3.org/2000/svg" viewBox="0 0 800 800" width="800" height="800">
  <title>Thurston Norm</title>
  <rect x="0" y="0" width="800" height="800" fill="#000000" opacity="1.00"/>
  <rect x="0" y="0" width="32" height="800" fill="#F4D35E" opacity="0.98"/>
  <rect x="44" y="0" width="30" height="800" fill="#457B9D" opacity="0.45"/>
  <rect x="88" y="0" width="26" height="800" fill="#457B9D" opacity="0.69"/>
  <rect x="132" y="0" width="21" height="800" fill="#457B9D" opacity="0.50"/>
  <rect x="176" y="0" width="19" height="800" fill="#F4D35E" opacity="0.96"/>
  <rect x="220" y="0" width="4" height="800" fill="#F4D35E" opacity="0.76"/>
  <rect x="264" y="0" width="7" height="800" fill="#457B9D" opacity="0.67"/>
  <rect x="308" y="0" width="2" height="800" fill="#457B9D" opacity="0.59"/>
  <rect x="352" y="0" width="23" height="800" fill="#F4D35E" opacity="0.76"/>
  <rect x="396" y="0" width="39" height="800" fill="#000000" opacity="0.51"/>
  <rect x="440" y="0" width="23" height="800" fill="#000000" opacity="0.31"/>
  <rect x="484" y="0" width="29" height="800" fill="#457B9D" opacity="0.70"/>
  <rect x="528" y="0" width="22" height="800" fill="#F4D35E" opacity="0.98"/>
  <rect x="572" y="0" width="13" height="800" fill="#457B9D" opacity="0.68"/>
  <rect x="616" y="0" width="25" height="800" fill="#457B9D" opacity="0.64"/>
  <rect x="660" y="0" width="2" height="800" fill="#F4D35E" opacity="0.95"/>
  <rect x="704" y="0" width="39" height="800" fill="#457B9D" opacity="0.51"/>
  <rect x="748" y="0" width="19" height="800" fill="#000000" opacity="0.55"/>
  <line x1="301" y1="0" x2="301" y2="800" stroke="#000000" stroke-width="6.837085097390128" opacity="1.00"/>
  <line x1="711" y1="0" x2="711" y2="800" stroke="#000000" stroke-width="4.288584671893493" opacity="1.00"/>
  <line x1="127" y1="0" x2="127" y2="800" stroke="#000000" stroke-width="5.114629355963091" opacity="1.00"/>
  <line x1="0" y1="797" x2="800" y2="797" stroke="#E63946" stroke-width="5.2945885024064605" opacity="0.59"/>
  <line x1="0" y1="671" x2="800" y2="671" stroke="#F4D35E" stroke-width="3.4976997567745465" opacity="0.42"/>
  <line x1="0" y1="703" x2="800" y2="703" stroke="#E63946" stroke-width="3.0097920035953503" opacity="0.76"/>
  <circle cx="369" cy="277" r="5" fill="#1D3557" opacity="0.75"/>
  <circle cx="535" cy="41" r="8" fill="#1D3557" opacity="0.73"/>
  <circle cx="442" cy="433" r="18" fill="#E63946" opacity="0.99"/>
  <circle cx="683" cy="444" r="20" fill="#E63946" opacity="0.79"/>
  <circle cx="396" cy="639" r="20" fill="#1D3557" opacity="0.84"/>
  <circle cx="645" cy="479" r="5" fill="#E63946" opacity="0.80"/>
  <circle cx="2" cy="3" r="14" fill="#F4D35E" opacity="0.81"/>
  <circle cx="752" cy="150" r="11" fill="#1D3557" opacity="0.88"/>
</svg>