<svg xmlns="http://www.w3.org/2000/svg" viewBox="0 0 800 800" width="800" height="800">
  <title>Accordion Folds</title>
  <rect x="0" y="0" width="800" height="800" fill="#1D3557" opacity="1.00"/>
  <rect x="1" y="1" width="98" height="298" fill="#E76F51" opacity="0.64"/>
  <rect x="101" y="1" width="198" height="98" fill="#E76F51" opacity="0.65"/>
  <rect x="301" y="1" width="198" height="198" fill="#E76F51" opacity="0.88"/>
  <rect x="501" y="1" width="298" height="198" fill="#F4D35E" opacity="0.78"/>
  <rect x="101" y="101" width="98" height="98" fill="#F4D35E" opacity="0.83"/>
  <rect x="201" y="101" width="98" height="98" fill="#A8DADC" opacity="0.81"/>
  <rect x="101" y="201" width="298" height="98" fill="#E9C46A" opacity="0.94"/>
  <rect x="401" y="201" width="98" height="298" fill="#A8DADC" opacity="0.90"/>
  <rect x="501" y="201" width="198" height="198" fill="#A8DADC" opacity="0.74"/>
  <rect x="701" y="201" width="98" height="298" fill="#F4D35E" opacity="0.76"/>
  <rect x="1" y="301" width="98" height="298" fill="#FFFFFF" opacity="0.92"/>
  <rect x="101" y="301" width="198" height="298" fill="#2A9D8F" opacity="0.90"/>
  <rect x="301" y="301" width="98" height="198" fill="#E9C46A" opacity="0.87"/>
  <rect x="501" y="401" width="98" height="298" fill="#FFFFFF" opacity="0.99"/>
  <rect x="601" y="401" width="98" height="98" fill="#A8DADC" opacity="0.63"/>
  <rect x="301" y="501" width="198" height="198" fill="#E76F51" opacity="0.77"/>
  <rect x="601" y="501" width="198" height="198" fill="#2A9D8F" opacity="0.80"/>
  <rect x="1" y="601" width="98" height="198" fill="#E63946" opacity="0.98"/>
  <rect x="101" y="601" width="98" height="98" fill="#FEFAE0" opacity="0.79"/>
  <rect x="201" y="601" width="98" height="98" fill="#FEFAE0" opacity="0.89"/>
  <rect x="101" y="701" width="298" height="98" fill="#2A9D8F" opacity="0.98"/>
  <rect x="401" y="701" width="198" height="98" fill="#F4D35E" opacity="0.68"/>
  <rect x="601" y="701" width="98" height="98" fill="#2A9D8F" opacity="0.66"/>
  <rect x="701" y="701" width="98" height="98" fill="#2A9D8F" opacity="0.77"/>
</svg>