<svg xmlns="http://www.w3.org/2000/svg" viewBox="0 0 800 800" width="800" height="800">
  <title>Handle Decomposition</title>
  <rect x="0" y="0" width="800" height="800" fill="#457B9D" opacity="1.00"/>
  <line x1="0" y1="0" x2="0" y2="800" stroke="#000000" stroke-width="0.5" opacity="0.06"/>
  <line x1="100" y1="0" x2="100" y2="800" stroke="#000000" stroke-width="0.5" opacity="0.06"/>
  <line x1="200" y1="0" x2="200" y2="800" stroke="#000000" stroke-width="0.5" opacity="0.06"/>
  <line x1="300" y1="0" x2="300" y2="800" stroke="#000000" stroke-width="0.5" opacity="0.06"/>
  <line x1="400" y1="0" x2="400" y2="800" stroke="#000000" stroke-width="0.5" opacity="0.06"/>
  <line x1="500" y1="0" x2="500" y2="800" stroke="#000000" stroke-width="0.5" opacity="0.06"/>
  <line x1="600" y1="0" x2="600" y2="800" stroke="#000000" stroke-width="0.5" opacity="0.06"/>
  <line x1="700" y1="0" x2="700" y2="800" stroke="#000000" stroke-width="0.5" opacity="0.06"/>
  <line x1="800" y1="0" x2="800" y2="800" stroke="#000000" stroke-width="0.5" opacity="0.06"/>
  <line x1="0" y1="0" x2="800" y2="0" stroke="#000000" stroke-width="0.5" opacity="0.06"/>
  <line x1="0" y1="100" x2="800" y2="100" stroke="#000000" stroke-width="0.5" opacity="0.06"/>
  <line x1="0" y1="200" x2="800" y2="200" stroke="#000000" stroke-width="0.5" opacity="0.06"/>
  <line x1="0" y1="300" x2="800" y2="300" stroke="#000000" stroke-width="0.5" opacity="0.06"/>
  <line x1="0" y1="400" x2="800" y2="400" stroke="#000000" stroke-width="0.5" opacity="0.06"/>
  <line x1="0" y1="500" x2="800" y2="500" stroke="#000000" stroke-width="0.5" opacity="0.06"/>
  <line x1="0" y1="600" x2="800" y2="600" stroke="#000000" stroke-width="0.5" opacity="0.06"/>
  <line x1="0" y1="700" x2="800" y2="700" stroke="#000000" stroke-width="0.5" opacity="0.06"/>
  <line x1="0" y1="800" x2="800" y2="800" stroke="#000000" stroke-width="0.5" opacity="0.06"/>
  <path d="M 519.6 251.1 A 141 141 0 1 1 559.2 475.7" stroke="#6D2E46" stroke-width="13.064796626044862" fill="none" opacity="0.79"/>
  <path d="M 392.7 533.3 A 204 204 0 1 1 50.1 644.6" stroke="#FFFFFF" stroke-width="10.71890821712322" fill="none" opacity="0.92"/>
  <path d="M 172.5 294.8 A 117 117 0 0 1 326.9 217.8" stroke="#FFFFFF" stroke-width="7.524075608472089" fill="none" opacity="0.96"/>
  <path d="M 741.7 -121.9 A 334 334 0 1 1 211.2 25.3" stroke="#6D2E46" stroke-width="18.59348488687445" fill="none" opacity="0.64"/>
  <circle cx="763" cy="376" r="38" fill="#F4D35E" opacity="0.98"/>
  <circle cx="33" cy="51" r="35" fill="#1D3557" opacity="0.84"/>
  <circle cx="318" cy="784" r="21" fill="#1D3557" opacity="0.86"/>
  <circle cx="304" cy="575" r="36" fill="#E63946" opacity="0.92"/>
  <circle cx="787" cy="690" r="22" fill="#E63946" opacity="0.99"/>
  <circle cx="389" cy="524" r="11" fill="#1D3557" opacity="0.73"/>
  <circle cx="794" cy="496" r="8" fill="#1D3557" opacity="0.81"/>
  <circle cx="635" cy="334" r="33" fill="#1D3557" opacity="0.73"/>
  <rect x="472" y="457" width="60" height="24" fill="#000000" opacity="0.72"/>
  <rect x="366" y="305" width="99" height="140" fill="#000000" opacity="0.77"/>
  <rect x="715" y="617" width="73" height="77" fill="#2A9D8F" opacity="0.43"/>
  <rect x="289" y="124" width="69" height="76" fill="#E63946" opacity="0.66"/>
  <rect x="357" y="392" width="32" height="95" fill="#F4D35E" opacity="0.59"/>
  <rect x="33" y="147" width="27" height="28" fill="#000000" opacity="0.62"/>
  <rect x="702" y="769" width="137" height="87" fill="#6D2E46" opacity="0.60"/>
</svg>