<svg xmlns="http://www.w3.org/2000/svg" viewBox="0 0 800 800" width="800" height="800">
  <title>Sounding Line</title>
  <rect x="0" y="0" width="800" height="800" fill="#1D3557" opacity="1.00"/>
  <line x1="0" y1="0" x2="0" y2="800" stroke="#000000" stroke-width="0.5" opacity="0.08"/>
  <line x1="80" y1="0" x2="80" y2="800" stroke="#000000" stroke-width="0.5" opacity="0.08"/>
  <line x1="160" y1="0" x2="160" y2="800" stroke="#000000" stroke-width="0.5" opacity="0.08"/>
  <line x1="240" y1="0" x2="240" y2="800" stroke="#000000" stroke-width="0.5" opacity="0.08"/>
  <line x1="320" y1="0" x2="320" y2="800" stroke="#000000" stroke-width="0.5" opacity="0.08"/>
  <line x1="400" y1="0" x2="400" y2="800" stroke="#000000" stroke-width="0.5" opacity="0.08"/>
  <line x1="480" y1="0" x2="480" y2="800" stroke="#000000" stroke-width="0.5" opacity="0.08"/>
  <line x1="560" y1="0" x2="560" y2="800" stroke="#000000" stroke-width="0.5" opacity="0.08"/>
  <line x1="640" y1="0" x2="640" y2="800" stroke="#000000" stroke-width="0.5" opacity="0.08"/>
  <line x1="720" y1="0" x2="720" y2="800" stroke="#000000" stroke-width="0.5" opacity="0.08"/>
  <line x1="800" y1="0" x2="800" y2="800" stroke="#000000" stroke-width="0.5" opacity="0.08"/>
  <line x1="0" y1="0" x2="800" y2="0" stroke="#000000" stroke-width="0.5" opacity="0.08"/>
  <line x1="0" y1="80" x2="800" y2="80" stroke="#000000" stroke-width="0.5" opacity="0.08"/>
  <line x1="0" y1="160" x2="800" y2="160" stroke="#000000" stroke-width="0.5" opacity="0.08"/>
  <line x1="0" y1="240" x2="800" y2="240" stroke="#000000" stroke-width="0.5" opacity="0.08"/>
  <line x1="0" y1="320" x2="800" y2="320" stroke="#000000" stroke-width="0.5" opacity="0.08"/>
  <line x1="0" y1="400" x2="800" y2="400" stroke="#000000" stroke-width="0.5" opacity="0.08"/>
  <line x1="0" y1="480" x2="800" y2="480" stroke="#000000" stroke-width="0.5" opacity="0.08"/>
  <line x1="0" y1="560" x2="800" y2="560" stroke="#000000" stroke-width="0.5" opacity="0.08"/>
  <line x1="0" y1="640" x2="800" y2="640" stroke="#000000" stroke-width="0.5" opacity="0.08"/>
  <line x1="0" y1="720" x2="800" y2="720" stroke="#000000" stroke-width="0.5" opacity="0.08"/>
  <line x1="0" y1="800" x2="800" y2="800" stroke="#000000" stroke-width="0.5" opacity="0.08"/>
  <line x1="439" y1="300" x2="320" y2="203" stroke="#FFFFFF" stroke-width="3.606406609732731" opacity="0.49"/>
  <line x1="439" y1="300" x2="638" y2="135" stroke="#FFFFFF" stroke-width="2.0850548928161365" opacity="0.80"/>
  <line x1="439" y1="300" x2="729" y2="449" stroke="#E9C46A" stroke-width="1.8353341312883016" opacity="0.64"/>
  <line x1="424" y1="353" x2="521" y2="51" stroke="#FFFFFF" stroke-width="1.5653160930485641" opacity="0.73"/>
  <line x1="424" y1="353" x2="729" y2="449" stroke="#E76F51" stroke-width="2.2554876120085723" opacity="0.41"/>
  <line x1="521" y1="51" x2="638" y2="135" stroke="#A8DADC" stroke-width="1.6747653726044587" opacity="0.59"/>
  <line x1="320" y1="203" x2="638" y2="135" stroke="#E63946" stroke-width="3.8189293806516003" opacity="0.44"/>
  <line x1="320" y1="203" x2="130" y2="78" stroke="#FEFAE0" stroke-width="1.0425500446609695" opacity="0.57"/>
  <line x1="268" y1="683" x2="279" y2="683" stroke="#E63946" stroke-width="1.2064898752635949" opacity="0.78"/>
  <circle cx="439" cy="300" r="16" fill="#F4D35E" opacity="1.00"/>
  <circle cx="439" cy="300" r="21" fill="none" opacity="1.00" stroke="#F4D35E" stroke-width="1.5"/>
  <circle cx="424" cy="353" r="16" fill="#E63946" opacity="1.00"/>
  <circle cx="424" cy="353" r="21" fill="none" opacity="1.00" stroke="#E63946" stroke-width="1.5"/>
  <circle cx="521" cy="51" r="9" fill="#E63946" opacity="1.00"/>
  <circle cx="521" cy="51" r="14" fill="none" opacity="1.00" stroke="#E63946" stroke-width="1.5"/>
  <circle cx="320" cy="203" r="21" fill="#1D3557" opacity="1.00"/>
  <circle cx="320" cy="203" r="26" fill="none" opacity="1.00" stroke="#1D3557" stroke-width="1.5"/>
  <circle cx="268" cy="683" r="24" fill="#E63946" opacity="1.00"/>
  <circle cx="268" cy="683" r="29" fill="none" opacity="1.00" stroke="#E63946" stroke-width="1.5"/>
  <circle cx="638" cy="135" r="23" fill="#F4D35E" opacity="1.00"/>
  <circle cx="638" cy="135" r="28" fill="none" opacity="1.00" stroke="#F4D35E" stroke-width="1.5"/>
  <circle cx="729" cy="449" r="18" fill="#E63946" opacity="1.00"/>
  <circle cx="729" cy="449" r="23" fill="none" opacity="1.00" stroke="#E63946" stroke-width="1.5"/>
  <circle cx="130" cy="78" r="24" fill="#1D3557" opacity="1.00"/>
  <circle cx="130" cy="78" r="29" fill="none" opacity="1.00" stroke="#1D3557" stroke-width="1.5"/>
  <circle cx="105" cy="92" r="12" fill="#F4D35E" opacity="1.00"/>
  <circle cx="105" cy="92" r="17" fill="none" opacity="1.00" stroke="#F4D35E" stroke-width="1.5"/>
  <circle cx="279" cy="683" r="21" fill="#F4D35E" opacity="1.00"/>
  <circle cx="279" cy="683" r="26" fill="none" opacity="1.00" stroke="#F4D35E" stroke-width="1.5"/>
</svg>