<svg xmlns="http://www.w3.org/2000/svg" viewBox="0 0 800 800" width="800" height="800">
  <title>Partition Wall</title>
  <rect x="0" y="0" width="800" height="800" fill="#000000" opacity="1.00"/>
  <line x1="0" y1="0" x2="0" y2="800" stroke="#000000" stroke-width="0.5" opacity="0.08"/>
  <line x1="80" y1="0" x2="80" y2="800" stroke="#000000" stroke-width="0.5" opacity="0.08"/>
  <line x1="160" y1="0" x2="160" y2="800" stroke="#000000" stroke-width="0.5" opacity="0.08"/>
  <line x1="240" y1="0" x2="240" y2="800" stroke="#000000" stroke-width="0.5" opacity="0.08"/>
  <line x1="320" y1="0" x2="320" y2="800" stroke="#000000" stroke-width="0.5" opacity="0.08"/>
  <line x1="400" y1="0" x2="400" y2="800" stroke="#000000" stroke-width="0.5" opacity="0.08"/>
  <line x1="480" y1="0" x2="480" y2="800" stroke="#000000" stroke-width="0.5" opacity="0.08"/>
  <line x1="560" y1="0" x2="560" y2="800" stroke="#000000" stroke-width="0.5" opacity="0.08"/>
  <line x1="640" y1="0" x2="640" y2="800" stroke="#000000" stroke-width="0.5" opacity="0.08"/>
  <line x1="720" y1="0" x2="720" y2="800" stroke="#000000" stroke-width="0.5" opacity="0.08"/>
  <line x1="800" y1="0" x2="800" y2="800" stroke="#000000" stroke-width="0.5" opacity="0.08"/>
  <line x1="0" y1="0" x2="800" y2="0" stroke="#000000" stroke-width="0.5" opacity="0.08"/>
  <line x1="0" y1="80" x2="800" y2="80" stroke="#000000" stroke-width="0.5" opacity="0.08"/>
  <line x1="0" y1="160" x2="800" y2="160" stroke="#000000" stroke-width="0.5" opacity="0.08"/>
  <line x1="0" y1="240" x2="800" y2="240" stroke="#000000" stroke-width="0.5" opacity="0.08"/>
  <line x1="0" y1="320" x2="800" y2="320" stroke="#000000" stroke-width="0.5" opacity="0.08"/>
  <line x1="0" y1="400" x2="800" y2="400" stroke="#000000" stroke-width="0.5" opacity="0.08"/>
  <line x1="0" y1="480" x2="800" y2="480" stroke="#000000" stroke-width="0.5" opacity="0.08"/>
  <line x1="0" y1="560" x2="800" y2="560" stroke="#000000" stroke-width="0.5" opacity="0.08"/>
  <line x1="0" y1="640" x2="800" y2="640" stroke="#000000" stroke-width="0.5" opacity="0.08"/>
  <line x1="0" y1="720" x2="800" y2="720" stroke="#000000" stroke-width="0.5" opacity="0.08"/>
  <line x1="0" y1="800" x2="800" y2="800" stroke="#000000" stroke-width="0.5" opacity="0.08"/>
  <line x1="546" y1="334" x2="655" y2="315" stroke="#FFFFFF" stroke-width="3.3869880336085854" opacity="0.72"/>
  <line x1="546" y1="334" x2="731" y2="206" stroke="#E9C46A" stroke-width="2.4016624229796726" opacity="0.49"/>
  <line x1="546" y1="334" x2="434" y2="512" stroke="#457B9D" stroke-width="2.1763323446261813" opacity="0.43"/>
  <line x1="546" y1="334" x2="333" y2="484" stroke="#F4D35E" stroke-width="3.1611072446065442" opacity="0.73"/>
  <line x1="546" y1="334" x2="747" y2="618" stroke="#A8DADC" stroke-width="3.123575681151893" opacity="0.78"/>
  <line x1="655" y1="315" x2="473" y2="227" stroke="#457B9D" stroke-width="2.8853199730132593" opacity="0.79"/>
  <line x1="655" y1="315" x2="731" y2="206" stroke="#2A9D8F" stroke-width="1.4778337940005066" opacity="0.44"/>
  <line x1="655" y1="315" x2="434" y2="512" stroke="#457B9D" stroke-width="3.233980311050299" opacity="0.44"/>
  <line x1="655" y1="315" x2="643" y2="452" stroke="#E76F51" stroke-width="2.6183798098841295" opacity="0.62"/>
  <line x1="473" y1="227" x2="434" y2="512" stroke="#F4D35E" stroke-width="2.107834934131702" opacity="0.56"/>
  <line x1="473" y1="227" x2="158" y2="315" stroke="#E76F51" stroke-width="3.2047737756024897" opacity="0.52"/>
  <line x1="146" y1="726" x2="333" y2="484" stroke="#E9C46A" stroke-width="1.733426486397489" opacity="0.68"/>
  <line x1="146" y1="726" x2="190" y2="414" stroke="#F4D35E" stroke-width="2.5587443794843363" opacity="0.68"/>
  <line x1="714" y1="284" x2="643" y2="452" stroke="#E63946" stroke-width="3.226766578299512" opacity="0.73"/>
  <line x1="434" y1="512" x2="158" y2="315" stroke="#E63946" stroke-width="3.2824546377468233" opacity="0.73"/>
  <line x1="434" y1="512" x2="333" y2="484" stroke="#F4D35E" stroke-width="3.5412258970220014" opacity="0.58"/>
  <line x1="434" y1="512" x2="319" y2="682" stroke="#E63946" stroke-width="2.889348287236624" opacity="0.46"/>
  <line x1="434" y1="512" x2="190" y2="414" stroke="#F4D35E" stroke-width="3.869573018485955" opacity="0.41"/>
  <line x1="434" y1="512" x2="643" y2="452" stroke="#E63946" stroke-width="3.5784528920093712" opacity="0.59"/>
  <line x1="158" y1="315" x2="333" y2="484" stroke="#FFFFFF" stroke-width="1.2548093045145459" opacity="0.68"/>
  <line x1="333" y1="484" x2="190" y2="414" stroke="#2A9D8F" stroke-width="1.8061611716797994" opacity="0.78"/>
  <line x1="747" y1="618" x2="700" y2="556" stroke="#2A9D8F" stroke-width="2.4759574247392733" opacity="0.72"/>
  <line x1="190" y1="414" x2="285" y2="579" stroke="#FFFFFF" stroke-width="1.708557771360857" opacity="0.61"/>
  <circle cx="546" cy="334" r="20" fill="#F4D35E" opacity="1.00"/>
  <circle cx="546" cy="334" r="25" fill="none" opacity="1.00" stroke="#F4D35E" stroke-width="1.5"/>
  <circle cx="655" cy="315" r="22" fill="#1D3557" opacity="1.00"/>
  <circle cx="655" cy="315" r="27" fill="none" opacity="1.00" stroke="#1D3557" stroke-width="1.5"/>
  <circle cx="531" cy="167" r="22" fill="#E63946" opacity="1.00"/>
  <circle cx="531" cy="167" r="27" fill="none" opacity="1.00" stroke="#E63946" stroke-width="1.5"/>
  <circle cx="473" cy="227" r="9" fill="#F4D35E" opacity="1.00"/>
  <circle cx="473" cy="227" r="14" fill="none" opacity="1.00" stroke="#F4D35E" stroke-width="1.5"/>
  <circle cx="731" cy="206" r="20" fill="#1D3557" opacity="1.00"/>
  <circle cx="731" cy="206" r="25" fill="none" opacity="1.00" stroke="#1D3557" stroke-width="1.5"/>
  <circle cx="146" cy="726" r="12" fill="#1D3557" opacity="1.00"/>
  <circle cx="146" cy="726" r="17" fill="none" opacity="1.00" stroke="#1D3557" stroke-width="1.5"/>
  <circle cx="714" cy="284" r="22" fill="#E63946" opacity="1.00"/>
  <circle cx="714" cy="284" r="27" fill="none" opacity="1.00" stroke="#E63946" stroke-width="1.5"/>
  <circle cx="434" cy="512" r="24" fill="#F4D35E" opacity="1.00"/>
  <circle cx="434" cy="512" r="29" fill="none" opacity="1.00" stroke="#F4D35E" stroke-width="1.5"/>
  <circle cx="158" cy="315" r="21" fill="#F4D35E" opacity="1.00"/>
  <circle cx="158" cy="315" r="26" fill="none" opacity="1.00" stroke="#F4D35E" stroke-width="1.5"/>
  <circle cx="333" cy="484" r="23" fill="#F4D35E" opacity="1.00"/>
  <circle cx="333" cy="484" r="28" fill="none" opacity="1.00" stroke="#F4D35E" stroke-width="1.5"/>
  <circle cx="747" cy="618" r="20" fill="#1D3557" opacity="1.00"/>
  <circle cx="747" cy="618" r="25" fill="none" opacity="1.00" stroke="#1D3557" stroke-width="1.5"/>
  <circle cx="319" cy="682" r="25" fill="#E63946" opacity="1.00"/>
  <circle cx="319" cy="682" r="30" fill="none" opacity="1.00" stroke="#E63946" stroke-width="1.5"/>
  <circle cx="190" cy="414" r="20" fill="#F4D35E" opacity="1.00"/>
  <circle cx="190" cy="414" r="25" fill="none" opacity="1.00" stroke="#F4D35E" stroke-width="1.5"/>
  <circle cx="700" cy="556" r="11" fill="#E63946" opacity="1.00"/>
  <circle cx="700" cy="556" r="16" fill="none" opacity="1.00" stroke="#E63946" stroke-width="1.5"/>
  <circle cx="285" cy="579" r="24" fill="#E63946" opacity="1.00"/>
  <circle cx="285" cy="579" r="29" fill="none" opacity="1.00" stroke="#E63946" stroke-width="1.5"/>
  <circle cx="643" cy="452" r="24" fill="#E63946" opacity="1.00"/>
  <circle cx="643" cy="452" r="29" fill="none" opacity="1.00" stroke="#E63946" stroke-width="1.5"/>
</svg>