<svg xmlns="http://www.w3.org/2000/svg" viewBox="0 0 800 800" width="800" height="800">
  <!-- White background -->
  <rect x="0" y="0" width="800" height="800" fill="#FFFFFF"/>
  <!-- Lines extending from center to edges -->
  <line x1="400" y1="400" x2="0" y2="0" stroke="#000000" stroke-width="0.5" opacity="0.12"/>
  <line x1="400" y1="400" x2="800" y2="0" stroke="#000000" stroke-width="0.5" opacity="0.12"/>
  <line x1="400" y1="400" x2="800" y2="800" stroke="#000000" stroke-width="0.5" opacity="0.12"/>
  <line x1="400" y1="400" x2="0" y2="800" stroke="#000000" stroke-width="0.5" opacity="0.12"/>
  <line x1="400" y1="400" x2="400" y2="0" stroke="#000000" stroke-width="0.5" opacity="0.1"/>
  <line x1="400" y1="400" x2="800" y2="400" stroke="#000000" stroke-width="0.5" opacity="0.1"/>
  <line x1="400" y1="400" x2="400" y2="800" stroke="#000000" stroke-width="0.5" opacity="0.1"/>
  <line x1="400" y1="400" x2="0" y2="400" stroke="#000000" stroke-width="0.5" opacity="0.1"/>
  <line x1="400" y1="400" x2="200" y2="0" stroke="#000000" stroke-width="0.5" opacity="0.08"/>
  <line x1="400" y1="400" x2="600" y2="0" stroke="#000000" stroke-width="0.5" opacity="0.08"/>
  <line x1="400" y1="400" x2="800" y2="200" stroke="#000000" stroke-width="0.5" opacity="0.08"/>
  <line x1="400" y1="400" x2="800" y2="600" stroke="#000000" stroke-width="0.5" opacity="0.08"/>
  <!-- Outer ring: large dark shapes at low opacity -->
  <circle cx="80" cy="100" r="55" fill="#264653" opacity="0.25"/>
  <rect x="650" y="50" width="90" height="70" fill="#000000" opacity="0.2"/>
  <circle cx="720" cy="700" r="60" fill="#6D2E46" opacity="0.3"/>
  <polygon points="50,600 120,550 130,650" fill="#264653" opacity="0.25"/>
  <rect x="30" y="350" width="80" height="60" fill="#000000" opacity="0.2"/>
  <circle cx="700" cy="350" r="50" fill="#6D2E46" opacity="0.2"/>
  <rect x="600" y="650" width="70" height="85" fill="#264653" opacity="0.25"/>
  <polygon points="150,720 200,660 250,730" fill="#000000" opacity="0.2"/>
  <!-- Coral accent ring -->
  <circle cx="400" cy="400" r="180" fill="none" stroke="#E9C46A" stroke-width="3" opacity="0.5"/>
  <circle cx="400" cy="400" r="175" fill="none" stroke="#E9C46A" stroke-width="1" opacity="0.3"/>
  <!-- Middle ring: medium shapes in blue, teal -->
  <circle cx="280" cy="280" r="28" fill="#1D3557" opacity="0.6"/>
  <rect x="490" y="260" width="40" height="40" fill="#2A9D8F" opacity="0.55"/>
  <circle cx="520" cy="510" r="25" fill="#457B9D" opacity="0.6"/>
  <rect x="250" y="480" width="35" height="45" fill="#1D3557" opacity="0.5"/>
  <circle cx="340" cy="530" r="22" fill="#2A9D8F" opacity="0.65"/>
  <polygon points="480,300 510,260 540,310" fill="#457B9D" opacity="0.5"/>
  <rect x="280" y="310" width="30" height="30" fill="#A8DADC" opacity="0.5"/>
  <circle cx="530" cy="320" r="20" fill="#2A9D8F" opacity="0.55"/>
  <!-- Inner ring: small dense bright shapes -->
  <circle cx="400" cy="380" r="8" fill="#E63946" opacity="0.9"/>
  <circle cx="385" cy="410" r="6" fill="#F4D35E" opacity="0.95"/>
  <circle cx="420" cy="395" r="7" fill="#E76F51" opacity="0.9"/>
  <rect x="392" y="415" width="10" height="10" fill="#E63946" opacity="0.85"/>
  <circle cx="410" cy="375" r="5" fill="#F4D35E" opacity="0.9"/>
  <rect x="375" y="390" width="8" height="8" fill="#E76F51" opacity="0.8"/>
  <circle cx="395" cy="365" r="9" fill="#E63946" opacity="0.85"/>
  <circle cx="425" cy="415" r="6" fill="#F4D35E" opacity="0.9"/>
  <rect x="365" y="375" width="7" height="7" fill="#E76F51" opacity="0.8"/>
  <circle cx="415" cy="430" r="5" fill="#E63946" opacity="0.85"/>
  <circle cx="370" y="420" r="7" fill="#DDA15E" opacity="0.8"/>
  <circle cx="430" cy="385" r="8" fill="#E9C46A" opacity="0.85"/>
  <rect x="405" y="360" width="9" height="9" fill="#F4D35E" opacity="0.9"/>
  <!-- Central focal point -->
  <circle cx="400" cy="400" r="12" fill="#E63946" opacity="1"/>
  <circle cx="400" cy="400" r="4" fill="#F4D35E" opacity="1"/>
  <!-- Corner accents -->
  <rect x="5" y="5" width="8" height="8" fill="#A89F91" opacity="0.3"/>
  <rect x="787" y="787" width="8" height="8" fill="#A89F91" opacity="0.3"/>
</svg>