<svg xmlns="http://www.w3.org/2000/svg" viewBox="0 0 800 800" width="800" height="800">
  <title>Load Path</title>
  <rect x="0" y="0" width="800" height="800" fill="#457B9D" opacity="1.00"/>
  <line x1="0" y1="0" x2="0" y2="800" stroke="#000000" stroke-width="0.5" opacity="0.08"/>
  <line x1="80" y1="0" x2="80" y2="800" stroke="#000000" stroke-width="0.5" opacity="0.08"/>
  <line x1="160" y1="0" x2="160" y2="800" stroke="#000000" stroke-width="0.5" opacity="0.08"/>
  <line x1="240" y1="0" x2="240" y2="800" stroke="#000000" stroke-width="0.5" opacity="0.08"/>
  <line x1="320" y1="0" x2="320" y2="800" stroke="#000000" stroke-width="0.5" opacity="0.08"/>
  <line x1="400" y1="0" x2="400" y2="800" stroke="#000000" stroke-width="0.5" opacity="0.08"/>
  <line x1="480" y1="0" x2="480" y2="800" stroke="#000000" stroke-width="0.5" opacity="0.08"/>
  <line x1="560" y1="0" x2="560" y2="800" stroke="#000000" stroke-width="0.5" opacity="0.08"/>
  <line x1="640" y1="0" x2="640" y2="800" stroke="#000000" stroke-width="0.5" opacity="0.08"/>
  <line x1="720" y1="0" x2="720" y2="800" stroke="#000000" stroke-width="0.5" opacity="0.08"/>
  <line x1="800" y1="0" x2="800" y2="800" stroke="#000000" stroke-width="0.5" opacity="0.08"/>
  <line x1="0" y1="0" x2="800" y2="0" stroke="#000000" stroke-width="0.5" opacity="0.08"/>
  <line x1="0" y1="80" x2="800" y2="80" stroke="#000000" stroke-width="0.5" opacity="0.08"/>
  <line x1="0" y1="160" x2="800" y2="160" stroke="#000000" stroke-width="0.5" opacity="0.08"/>
  <line x1="0" y1="240" x2="800" y2="240" stroke="#000000" stroke-width="0.5" opacity="0.08"/>
  <line x1="0" y1="320" x2="800" y2="320" stroke="#000000" stroke-width="0.5" opacity="0.08"/>
  <line x1="0" y1="400" x2="800" y2="400" stroke="#000000" stroke-width="0.5" opacity="0.08"/>
  <line x1="0" y1="480" x2="800" y2="480" stroke="#000000" stroke-width="0.5" opacity="0.08"/>
  <line x1="0" y1="560" x2="800" y2="560" stroke="#000000" stroke-width="0.5" opacity="0.08"/>
  <line x1="0" y1="640" x2="800" y2="640" stroke="#000000" stroke-width="0.5" opacity="0.08"/>
  <line x1="0" y1="720" x2="800" y2="720" stroke="#000000" stroke-width="0.5" opacity="0.08"/>
  <line x1="0" y1="800" x2="800" y2="800" stroke="#000000" stroke-width="0.5" opacity="0.08"/>
  <line x1="211" y1="607" x2="163" y2="722" stroke="#F4D35E" stroke-width="1.7490068568801203" opacity="0.46"/>
  <line x1="211" y1="607" x2="454" y2="628" stroke="#E63946" stroke-width="1.977061311928996" opacity="0.46"/>
  <line x1="211" y1="607" x2="309" y2="579" stroke="#E63946" stroke-width="2.052526558475364" opacity="0.68"/>
  <line x1="211" y1="607" x2="440" y2="438" stroke="#E76F51" stroke-width="2.8679195290558845" opacity="0.45"/>
  <line x1="89" y1="291" x2="245" y2="442" stroke="#E76F51" stroke-width="1.6367617583170198" opacity="0.64"/>
  <line x1="245" y1="442" x2="163" y2="722" stroke="#FFFFFF" stroke-width="2.3057884927154806" opacity="0.68"/>
  <line x1="245" y1="442" x2="431" y2="224" stroke="#E76F51" stroke-width="3.4060548488208835" opacity="0.76"/>
  <line x1="245" y1="442" x2="317" y2="565" stroke="#FFFFFF" stroke-width="1.6323736134640403" opacity="0.61"/>
  <line x1="83" y1="177" x2="246" y2="327" stroke="#E76F51" stroke-width="3.3448629797024005" opacity="0.67"/>
  <line x1="83" y1="177" x2="102" y2="67" stroke="#FFFFFF" stroke-width="1.1107197612448982" opacity="0.75"/>
  <line x1="650" y1="252" x2="434" y2="53" stroke="#2A9D8F" stroke-width="1.9948446672441444" opacity="0.61"/>
  <line x1="650" y1="252" x2="431" y2="224" stroke="#000000" stroke-width="3.442511447182445" opacity="0.46"/>
  <line x1="246" y1="327" x2="440" y2="438" stroke="#6D2E46" stroke-width="1.7104018954877303" opacity="0.79"/>
  <line x1="246" y1="327" x2="317" y2="565" stroke="#E76F51" stroke-width="2.378955189556847" opacity="0.45"/>
  <line x1="469" y1="81" x2="434" y2="53" stroke="#F4D35E" stroke-width="2.091006120169582" opacity="0.75"/>
  <line x1="469" y1="81" x2="431" y2="224" stroke="#E76F51" stroke-width="2.7893016417276155" opacity="0.78"/>
  <line x1="335" y1="738" x2="500" y2="474" stroke="#000000" stroke-width="1.537580558802511" opacity="0.52"/>
  <line x1="335" y1="738" x2="454" y2="628" stroke="#E63946" stroke-width="2.597893719094467" opacity="0.53"/>
  <line x1="335" y1="738" x2="309" y2="579" stroke="#E63946" stroke-width="1.9607728303098144" opacity="0.78"/>
  <line x1="500" y1="474" x2="309" y2="579" stroke="#6D2E46" stroke-width="1.814214396711916" opacity="0.45"/>
  <line x1="500" y1="474" x2="619" y2="449" stroke="#2A9D8F" stroke-width="2.1885916343991707" opacity="0.51"/>
  <line x1="500" y1="474" x2="317" y2="565" stroke="#2A9D8F" stroke-width="1.119175974625182" opacity="0.72"/>
  <line x1="102" y1="67" x2="434" y2="53" stroke="#E63946" stroke-width="1.5488798865860371" opacity="0.61"/>
  <line x1="434" y1="53" x2="689" y2="141" stroke="#6D2E46" stroke-width="2.202670500324563" opacity="0.65"/>
  <line x1="431" y1="224" x2="619" y2="449" stroke="#E76F51" stroke-width="1.1772642748077573" opacity="0.67"/>
  <line x1="689" y1="141" x2="619" y2="449" stroke="#2A9D8F" stroke-width="2.350274016938768" opacity="0.43"/>
  <line x1="454" y1="628" x2="440" y2="438" stroke="#000000" stroke-width="3.375879021854849" opacity="0.51"/>
  <line x1="454" y1="628" x2="619" y2="449" stroke="#F4D35E" stroke-width="1.4008593458393532" opacity="0.55"/>
  <line x1="309" y1="579" x2="440" y2="438" stroke="#6D2E46" stroke-width="2.8722483208733967" opacity="0.52"/>
  <line x1="309" y1="579" x2="619" y2="449" stroke="#F4D35E" stroke-width="2.010005641913163" opacity="0.55"/>
  <line x1="440" y1="438" x2="317" y2="565" stroke="#E76F51" stroke-width="1.8922844593392594" opacity="0.41"/>
  <circle cx="211" cy="607" r="13" fill="#1D3557" opacity="1.00"/>
  <circle cx="211" cy="607" r="18" fill="none" opacity="1.00" stroke="#1D3557" stroke-width="1.5"/>
  <circle cx="89" cy="291" r="20" fill="#E63946" opacity="1.00"/>
  <circle cx="89" cy="291" r="25" fill="none" opacity="1.00" stroke="#E63946" stroke-width="1.5"/>
  <circle cx="245" cy="442" r="22" fill="#E63946" opacity="1.00"/>
  <circle cx="245" cy="442" r="27" fill="none" opacity="1.00" stroke="#E63946" stroke-width="1.5"/>
  <circle cx="83" cy="177" r="9" fill="#E63946" opacity="1.00"/>
  <circle cx="83" cy="177" r="14" fill="none" opacity="1.00" stroke="#E63946" stroke-width="1.5"/>
  <circle cx="650" cy="252" r="9" fill="#F4D35E" opacity="1.00"/>
  <circle cx="650" cy="252" r="14" fill="none" opacity="1.00" stroke="#F4D35E" stroke-width="1.5"/>
  <circle cx="246" cy="327" r="24" fill="#1D3557" opacity="1.00"/>
  <circle cx="246" cy="327" r="29" fill="none" opacity="1.00" stroke="#1D3557" stroke-width="1.5"/>
  <circle cx="163" cy="722" r="24" fill="#F4D35E" opacity="1.00"/>
  <circle cx="163" cy="722" r="29" fill="none" opacity="1.00" stroke="#F4D35E" stroke-width="1.5"/>
  <circle cx="469" cy="81" r="14" fill="#1D3557" opacity="1.00"/>
  <circle cx="469" cy="81" r="19" fill="none" opacity="1.00" stroke="#1D3557" stroke-width="1.5"/>
  <circle cx="335" cy="738" r="9" fill="#1D3557" opacity="1.00"/>
  <circle cx="335" cy="738" r="14" fill="none" opacity="1.00" stroke="#1D3557" stroke-width="1.5"/>
  <circle cx="500" cy="474" r="14" fill="#1D3557" opacity="1.00"/>
  <circle cx="500" cy="474" r="19" fill="none" opacity="1.00" stroke="#1D3557" stroke-width="1.5"/>
  <circle cx="102" cy="67" r="10" fill="#1D3557" opacity="1.00"/>
  <circle cx="102" cy="67" r="15" fill="none" opacity="1.00" stroke="#1D3557" stroke-width="1.5"/>
  <circle cx="434" cy="53" r="15" fill="#1D3557" opacity="1.00"/>
  <circle cx="434" cy="53" r="20" fill="none" opacity="1.00" stroke="#1D3557" stroke-width="1.5"/>
  <circle cx="431" cy="224" r="13" fill="#E63946" opacity="1.00"/>
  <circle cx="431" cy="224" r="18" fill="none" opacity="1.00" stroke="#E63946" stroke-width="1.5"/>
  <circle cx="689" cy="141" r="18" fill="#F4D35E" opacity="1.00"/>
  <circle cx="689" cy="141" r="23" fill="none" opacity="1.00" stroke="#F4D35E" stroke-width="1.5"/>
  <circle cx="454" cy="628" r="11" fill="#1D3557" opacity="1.00"/>
  <circle cx="454" cy="628" r="16" fill="none" opacity="1.00" stroke="#1D3557" stroke-width="1.5"/>
  <circle cx="309" cy="579" r="17" fill="#1D3557" opacity="1.00"/>
  <circle cx="309" cy="579" r="22" fill="none" opacity="1.00" stroke="#1D3557" stroke-width="1.5"/>
  <circle cx="440" cy="438" r="20" fill="#1D3557" opacity="1.00"/>
  <circle cx="440" cy="438" r="25" fill="none" opacity="1.00" stroke="#1D3557" stroke-width="1.5"/>
  <circle cx="619" cy="449" r="18" fill="#E63946" opacity="1.00"/>
  <circle cx="619" cy="449" r="23" fill="none" opacity="1.00" stroke="#E63946" stroke-width="1.5"/>
  <circle cx="317" cy="565" r="14" fill="#1D3557" opacity="1.00"/>
  <circle cx="317" cy="565" r="19" fill="none" opacity="1.00" stroke="#1D3557" stroke-width="1.5"/>
</svg>