<svg xmlns="http://www.w3.org/2000/svg" viewBox="0 0 800 800" width="800" height="800">
  <title>Compression Ring</title>
  <rect x="0" y="0" width="800" height="800" fill="#457B9D" opacity="1.00"/>
  <rect x="255" y="-49" width="574" height="574" fill="#000000" opacity="0.69"/>
  <rect x="276" y="-28" width="533" height="533" fill="#E76F51" opacity="0.67" transform="rotate(130 542 238)"/>
  <rect x="296" y="-8" width="492" height="492" fill="#E76F51" opacity="0.75" transform="rotate(132 542 238)"/>
  <rect x="317" y="13" width="451" height="451" fill="#2A9D8F" opacity="0.69" transform="rotate(11 542 238)"/>
  <rect x="337" y="33" width="410" height="410" fill="#FFFFFF" opacity="0.86" transform="rotate(10 542 238)"/>
  <rect x="358" y="54" width="369" height="369" fill="#6D2E46" opacity="0.86"/>
  <rect x="378" y="74" width="328" height="328" fill="#F4D35E" opacity="0.85" transform="rotate(16 542 238)"/>
  <rect x="399" y="95" width="287" height="287" fill="#2A9D8F" opacity="0.60"/>
  <rect x="419" y="115" width="246" height="246" fill="#6D2E46" opacity="0.71" transform="rotate(42 542 238)"/>
  <rect x="440" y="136" width="205" height="205" fill="#000000" opacity="0.83"/>
  <rect x="460" y="156" width="164" height="164" fill="#E76F51" opacity="0.85"/>
  <rect x="481" y="177" width="123" height="123" fill="#000000" opacity="0.74"/>
  <rect x="501" y="197" width="82" height="82" fill="#E63946" opacity="0.60"/>
  <rect x="522" y="218" width="41" height="41" fill="#6D2E46" opacity="0.89" transform="rotate(6 542 238)"/>
  <line x1="117.73593128807147" y1="-186.26406871192847" x2="966.2640687119285" y2="662.2640687119285" stroke="#000000" stroke-width="1" opacity="0.15"/>
  <line x1="966.2640687119285" y1="-186.26406871192853" x2="117.73593128807153" y2="662.2640687119285" stroke="#000000" stroke-width="1" opacity="0.15"/>
  <line x1="542" y1="0" x2="542" y2="800" stroke="#000000" stroke-width="1" opacity="0.10"/>
  <line x1="0" y1="238" x2="800" y2="238" stroke="#000000" stroke-width="1" opacity="0.10"/>
  <circle cx="243" cy="209" r="4" fill="#F4D35E" opacity="0.79"/>
  <circle cx="342" cy="182" r="13" fill="#F4D35E" opacity="0.68"/>
  <circle cx="289" cy="492" r="8" fill="#F4D35E" opacity="0.69"/>
  <circle cx="421" cy="641" r="18" fill="#1D3557" opacity="0.68"/>
  <circle cx="550" cy="460" r="18" fill="#F4D35E" opacity="0.98"/>
  <circle cx="26" cy="421" r="19" fill="#F4D35E" opacity="0.67"/>
  <circle cx="500" cy="268" r="17" fill="#F4D35E" opacity="0.95"/>
  <circle cx="271" cy="565" r="19" fill="#1D3557" opacity="0.77"/>
  <circle cx="800" cy="428" r="15" fill="#E63946" opacity="0.64"/>
  <circle cx="127" cy="70" r="18" fill="#F4D35E" opacity="0.69"/>
</svg>